<svg width="24" height="24" viewBox="0 0 24 24" fill="none" xmlns="http://www.w3.org/2000/svg">
<g clip-path="url(#clip0_1802_13004)">
<path d="M11.9988 23.817C18.5333 23.817 23.8305 18.5198 23.8305 11.9853C23.8305 5.4508 18.5333 0.153564 11.9988 0.153564C5.46435 0.153564 0.167114 5.4508 0.167114 11.9853C0.167114 18.5198 5.46435 23.817 11.9988 23.817Z" fill="#1E1E1C"/>
<path d="M16.1874 8.78364C16.695 8.78364 17.1065 8.37211 17.1065 7.86447C17.1065 7.35684 16.695 6.94531 16.1874 6.94531C15.6797 6.94531 15.2682 7.35684 15.2682 7.86447C15.2682 8.37211 15.6797 8.78364 16.1874 8.78364Z" fill="white"/>
<path d="M12.1009 8.12415C9.97193 8.12415 8.23975 9.85627 8.23975 11.9853C8.23975 14.1143 9.97193 15.8464 12.1009 15.8464C14.23 15.8464 15.962 14.1143 15.962 11.9853C15.962 9.85627 14.23 8.12415 12.1009 8.12415ZM12.1009 14.4586C10.7371 14.4586 9.62755 13.3491 9.62755 11.9853C9.62755 10.6215 10.7371 9.51197 12.1009 9.51197C13.4648 9.51197 14.5742 10.6215 14.5742 11.9853C14.5742 13.3491 13.4648 14.4586 12.1009 14.4586Z" fill="white"/>
<path d="M15.1662 19.8245H8.90662C6.30982 19.8245 4.19727 17.712 4.19727 15.1152V8.85535C4.19727 6.25852 6.30982 4.146 8.90662 4.146H15.1662C17.763 4.146 19.8758 6.25852 19.8758 8.85535V15.1152C19.8758 17.712 17.763 19.8245 15.1662 19.8245ZM8.90662 5.621C7.12308 5.621 5.67227 7.07181 5.67227 8.85535V15.1152C5.67227 16.8987 7.12308 18.3495 8.90662 18.3495H15.1662C16.9497 18.3495 18.4008 16.8987 18.4008 15.1152V8.85535C18.4008 7.07181 16.9497 5.621 15.1662 5.621H8.90662Z" fill="white"/>
</g>
<defs>
<clipPath id="clip0_1802_13004">
<rect width="24" height="24" fill="white"/>
</clipPath>
</defs>
</svg>
