<svg width="375" height="406" viewBox="0 0 375 406" fill="none" xmlns="http://www.w3.org/2000/svg">

<defs>
<clipPath id="clip0_402_14344">
<rect width="375" height="406" fill="white"/>
</clipPath>
</defs>

<g clip-path="url(#clip0_402_14344)">
<path d="M-3 202.5V1.11193H45.3129V36.4701C58.7117 9.82338 82.2884 -3.5 116.043 -3.5C139.233 -3.5 156.626 3.1617 168.221 16.4851C180.074 29.5522 186 48.7686 186 74.1343V202.5H134.595V89.8918C134.595 72.9813 131.503 60.2985 125.319 51.8433C119.393 43.1318 109.601 38.7761 95.9448 38.7761C80.7423 38.7761 69.0184 44.0286 60.773 54.5336C52.7853 64.7823 48.7914 78.7463 48.7914 96.4254V202.5H-3Z" fill="#1E1E1C"/>
<path d="M225.232 174.925C207.077 156.29 198 130.982 198 99C198 67.0182 207.077 41.8358 225.232 23.4525C243.638 4.81751 268.474 -4.5 299.74 -4.5C331.006 -4.5 355.716 4.81751 373.87 23.4525C392.277 41.8358 401.48 67.0182 401.48 99C401.48 130.982 392.277 156.29 373.87 174.925C355.716 193.308 331.006 202.5 299.74 202.5C268.474 202.5 243.638 193.308 225.232 174.925ZM262.297 52.5383C252.967 64.3741 248.303 79.8613 248.303 99C248.303 118.139 252.967 133.626 262.297 145.462C271.626 157.297 284.107 163.215 299.74 163.215C315.625 163.215 328.232 157.297 337.561 145.462C346.891 133.626 351.555 118.139 351.555 99C351.555 79.8613 346.891 64.3741 337.561 52.5383C328.232 40.7026 315.625 34.7847 299.74 34.7847C284.107 34.7847 271.626 40.7026 262.297 52.5383Z" fill="#1E1E1C"/>
<path d="M104.522 203.5C112.338 203.5 119.903 204.507 127.215 206.522V250.717C114.356 248.954 104.396 248.073 97.3359 248.073C81.1987 248.073 69.2219 252.984 61.4055 262.805C53.8412 272.626 50.059 288.617 50.059 310.777V405.589H-1L-0.621796 207.655H46.2769V245.807C57.8755 217.602 77.2905 203.5 104.522 203.5Z" fill="#1E1E1C"/>
<path d="M135 405.5V207.045H182.452V241.131C195.106 215.377 216.238 202.5 245.848 202.5C276.471 202.5 296.085 216.134 304.689 243.403C317.09 216.134 338.728 202.5 369.604 202.5C389.597 202.5 405.161 208.938 416.297 221.815C427.432 234.44 433 252.366 433 275.595V405.5H382.131V288.472C382.131 274.838 379.347 264.107 373.78 256.28C368.465 248.2 360.366 244.16 349.484 244.16C337.083 244.16 327.34 249.21 320.254 259.31C313.167 269.157 309.624 283.044 309.624 300.97V405.5H258.755V288.472C258.755 274.838 255.972 264.107 250.404 256.28C245.089 248.2 236.991 244.16 226.108 244.16C213.707 244.16 203.837 249.21 196.498 259.31C189.412 269.157 185.869 283.044 185.869 300.97V405.5H135Z" fill="#1E1E1C"/>
</g>

</svg>
