<svg width="20" height="15" viewBox="0 0 20 15" fill="none" xmlns="http://www.w3.org/2000/svg">
<mask id="mask0_270_60908" style="mask-type:alpha" maskUnits="userSpaceOnUse" x="0" y="0" width="20" height="15">
<rect width="20" height="15" fill="white"/>
</mask>
<g mask="url(#mask0_270_60908)">
<path fill-rule="evenodd" clip-rule="evenodd" d="M0 0V15H20V0H0Z" fill="#2E42A5"/>
<mask id="mask1_270_60908" style="mask-type:alpha" maskUnits="userSpaceOnUse" x="0" y="0" width="20" height="15">
<path fill-rule="evenodd" clip-rule="evenodd" d="M0 0V15H20V0H0Z" fill="white"/>
</mask>
<g mask="url(#mask1_270_60908)">
<path d="M16.2189 13.4775C15.5907 13.4775 15.1668 13.3294 14.8699 13.0828C14.5707 12.8342 14.3685 12.459 14.2371 11.9421C14.1054 11.4238 14.0506 10.7854 14.0301 10.0357C14.0157 9.50907 14.0184 8.93834 14.0213 8.3245C14.0221 8.14356 14.023 7.95886 14.0234 7.77045H18.476C18.555 9.24481 18.5766 10.661 18.2921 11.7231C18.1434 12.2782 17.9168 12.7133 17.5918 13.0092C17.2719 13.3005 16.8343 13.4775 16.2189 13.4775Z" fill="white" stroke="#E6E617" stroke-width="0.5"/>
<path fill-rule="evenodd" clip-rule="evenodd" d="M14.2458 12.6962C14.6194 13.5296 15.2729 13.9462 16.2063 13.9462C17.1335 13.9462 17.7891 13.5351 18.1731 12.7129L14.2458 12.6962Z" fill="#82E5FF"/>
<path fill-rule="evenodd" clip-rule="evenodd" d="M14.6532 9.75C14.6532 10.5794 15.3285 11.25 16.1594 11.25C16.9903 11.25 17.6657 10.5794 17.6657 9.75C17.6657 8.92057 16.9903 8.25 16.1594 8.25C15.3285 8.25 14.6532 8.92057 14.6532 9.75ZM17.0407 9.75C17.0407 10.2332 16.6461 10.625 16.1594 10.625C15.6727 10.625 15.2782 10.2332 15.2782 9.75C15.2782 9.26675 15.6727 8.875 16.1594 8.875C16.6461 8.875 17.0407 9.26675 17.0407 9.75Z" fill="#E18600"/>
<path fill-rule="evenodd" clip-rule="evenodd" d="M15.9052 8.04108C15.9052 8.04108 15.357 8.2897 15.476 8.75709C15.595 9.22448 15.7294 9.29108 15.7294 9.29108C15.7294 9.29108 15.923 8.27922 16.7048 8.27922L15.9052 8.04108Z" fill="#E18600"/>
<path fill-rule="evenodd" clip-rule="evenodd" d="M14.9076 10.5619C14.9076 10.5619 15.3646 10.9537 15.738 10.6483C16.1113 10.343 16.1148 10.193 16.1148 10.193C16.1148 10.193 15.1159 10.4451 14.7855 9.73663L14.9076 10.5619Z" fill="#E18600"/>
<path fill-rule="evenodd" clip-rule="evenodd" d="M17.6503 10.5093C17.6503 10.5093 17.6671 9.90758 17.1949 9.80962C16.7226 9.71165 16.6039 9.80329 16.6039 9.80329C16.6039 9.80329 17.4284 10.4209 17.0857 11.1235L17.6503 10.5093Z" fill="#E18600"/>
<rect width="11" height="9" fill="#2E42A5"/>
<mask id="mask2_270_60908" style="mask-type:alpha" maskUnits="userSpaceOnUse" x="0" y="0" width="11" height="9">
<rect width="11" height="9" fill="white"/>
</mask>
<g mask="url(#mask2_270_60908)">
<path d="M-1.25266 8.12488L1.22293 9.21063L11.3062 1.18046L12.612 -0.432999L9.96471 -0.795888L5.85199 2.66454L2.54168 4.99607L-1.25266 8.12488Z" fill="#F7FCFF"/>
<path d="M-0.91375 8.88555L0.347451 9.51562L12.1431 -0.582947H10.3722L-0.91375 8.88555Z" fill="#F50100"/>
<path d="M12.5027 8.12487L10.3056 9.52057L-0.0561714 1.18044L-1.36199 -0.433015L1.2853 -0.795905L5.39802 2.66453L8.70833 4.99605L12.5027 8.12487Z" fill="#F7FCFF"/>
<path d="M12.4182 8.67082L11.157 9.3009L6.13429 4.97718L4.64517 4.4941L-1.48764 -0.427482H0.283231L6.4126 4.37728L8.04069 4.95655L12.4182 8.67082Z" fill="#F50100"/>
<mask id="path-16-outside-1_270_60908" maskUnits="userSpaceOnUse" x="-1" y="-1" width="13" height="11" fill="black">
<rect fill="white" x="-1" y="-1" width="13" height="11"/>
<path fill-rule="evenodd" clip-rule="evenodd" d="M6 0H5V4H0V5H5V9H6V5H11V4H6V0Z"/>
</mask>
<path fill-rule="evenodd" clip-rule="evenodd" d="M6 0H5V4H0V5H5V9H6V5H11V4H6V0Z" fill="#F50100"/>
<path d="M5 0V-0.9375H4.0625V0H5ZM6 0H6.9375V-0.9375H6V0ZM5 4V4.9375H5.9375V4H5ZM0 4V3.0625H-0.9375V4H0ZM0 5H-0.9375V5.9375H0V5ZM5 5H5.9375V4.0625H5V5ZM5 9H4.0625V9.9375H5V9ZM6 9V9.9375H6.9375V9H6ZM6 5V4.0625H5.0625V5H6ZM11 5V5.9375H11.9375V5H11ZM11 4H11.9375V3.0625H11V4ZM6 4H5.0625V4.9375H6V4ZM5 0.9375H6V-0.9375H5V0.9375ZM5.9375 4V0H4.0625V4H5.9375ZM0 4.9375H5V3.0625H0V4.9375ZM0.9375 5V4H-0.9375V5H0.9375ZM5 4.0625H0V5.9375H5V4.0625ZM5.9375 9V5H4.0625V9H5.9375ZM6 8.0625H5V9.9375H6V8.0625ZM5.0625 5V9H6.9375V5H5.0625ZM11 4.0625H6V5.9375H11V4.0625ZM10.0625 4V5H11.9375V4H10.0625ZM6 4.9375H11V3.0625H6V4.9375ZM5.0625 0V4H6.9375V0H5.0625Z" fill="#F7FCFF" mask="url(#path-16-outside-1_270_60908)"/>
</g>
</g>
</g>
</svg>
