<svg width="20" height="15" viewBox="0 0 20 15" fill="none" xmlns="http://www.w3.org/2000/svg">
<mask id="mask0_270_61010" style="mask-type:alpha" maskUnits="userSpaceOnUse" x="0" y="0" width="20" height="15">
<rect width="20" height="15" fill="white"/>
</mask>
<g mask="url(#mask0_270_61010)">
<path fill-rule="evenodd" clip-rule="evenodd" d="M0 0V15H20V0H0Z" fill="#2E42A5"/>
<mask id="mask1_270_61010" style="mask-type:alpha" maskUnits="userSpaceOnUse" x="0" y="0" width="20" height="15">
<path fill-rule="evenodd" clip-rule="evenodd" d="M0 0V15H20V0H0Z" fill="white"/>
</mask>
<g mask="url(#mask1_270_61010)">
<rect width="11" height="9" fill="#2E42A5"/>
<mask id="mask2_270_61010" style="mask-type:alpha" maskUnits="userSpaceOnUse" x="0" y="0" width="11" height="9">
<rect width="11" height="9" fill="white"/>
</mask>
<g mask="url(#mask2_270_61010)">
<path d="M-1.25267 8.12488L1.22292 9.21063L11.3062 1.18046L12.612 -0.432999L9.9647 -0.795888L5.85198 2.66454L2.54167 4.99607L-1.25267 8.12488Z" fill="#F7FCFF"/>
<path d="M-0.913757 8.88555L0.347444 9.51562L12.1431 -0.582947H10.3722L-0.913757 8.88555Z" fill="#F50100"/>
<path d="M12.5027 8.12487L10.3056 9.52057L-0.0561714 1.18044L-1.36199 -0.433015L1.2853 -0.795905L5.39802 2.66453L8.70833 4.99605L12.5027 8.12487Z" fill="#F7FCFF"/>
<path d="M12.4182 8.67082L11.157 9.3009L6.13429 4.97718L4.64517 4.4941L-1.48764 -0.427482H0.283231L6.4126 4.37728L8.04069 4.95655L12.4182 8.67082Z" fill="#F50100"/>
<mask id="path-10-outside-1_270_61010" maskUnits="userSpaceOnUse" x="-1" y="-1" width="13" height="11" fill="black">
<rect fill="white" x="-1" y="-1" width="13" height="11"/>
<path fill-rule="evenodd" clip-rule="evenodd" d="M6 0H5V4H0V5H5V9H6V5H11V4H6V0Z"/>
</mask>
<path fill-rule="evenodd" clip-rule="evenodd" d="M6 0H5V4H0V5H5V9H6V5H11V4H6V0Z" fill="#F50100"/>
<path d="M5 0V-0.9375H4.0625V0H5ZM6 0H6.9375V-0.9375H6V0ZM5 4V4.9375H5.9375V4H5ZM0 4V3.0625H-0.9375V4H0ZM0 5H-0.9375V5.9375H0V5ZM5 5H5.9375V4.0625H5V5ZM5 9H4.0625V9.9375H5V9ZM6 9V9.9375H6.9375V9H6ZM6 5V4.0625H5.0625V5H6ZM11 5V5.9375H11.9375V5H11ZM11 4H11.9375V3.0625H11V4ZM6 4H5.0625V4.9375H6V4ZM5 0.9375H6V-0.9375H5V0.9375ZM5.9375 4V0H4.0625V4H5.9375ZM0 4.9375H5V3.0625H0V4.9375ZM0.9375 5V4H-0.9375V5H0.9375ZM5 4.0625H0V5.9375H5V4.0625ZM5.9375 9V5H4.0625V9H5.9375ZM6 8.0625H5V9.9375H6V8.0625ZM5.0625 5V9H6.9375V5H5.0625ZM11 4.0625H6V5.9375H11V4.0625ZM10.0625 4V5H11.9375V4H10.0625ZM6 4.9375H11V3.0625H6V4.9375ZM5.0625 0V4H6.9375V0H5.0625Z" fill="#F7FCFF" mask="url(#path-10-outside-1_270_61010)"/>
</g>
<path fill-rule="evenodd" clip-rule="evenodd" d="M14.9068 9.28445L15.5692 8.82303L16.2101 9.28445L16.0109 8.46332L16.5256 7.94295H15.8705L15.5683 7.27283L15.3105 7.94295H14.5421L15.1304 8.46332L14.9068 9.28445ZM16.6648 10.0709L17.3272 9.60948L17.7184 9.89116L17.5929 10.2175H16.8245L17.4128 10.7378L17.3038 11.138L17.2277 10.9692L16.97 11.6393H16.2015L16.7899 12.1597L16.5662 12.9808L17.2286 12.5194L17.8695 12.9808L17.6703 12.1597L18.185 11.6393H17.5299L17.4209 11.3976L17.8516 11.0975L18.4925 11.559L18.2932 10.7378L18.808 10.2175H18.1529L17.8507 9.54734L17.8448 9.56268L17.7688 9.24977L18.2835 8.7294H17.6285L17.3263 8.05928L17.0685 8.7294H16.3001L16.8884 9.24977L16.6648 10.0709ZM15.636 13.2982L14.9736 13.7596L15.1972 12.9385L14.6622 12.4653L14.7933 13.0055L14.1524 12.544L13.49 13.0055L13.7136 12.1843L13.1253 11.664H13.8937L13.9457 11.5288L13.3609 11.1078L12.6985 11.5693L12.9222 10.7481L12.3338 10.2278H13.1023L13.36 9.55764L13.3955 9.63638L13.4929 9.2788L12.9046 8.75843H13.673L13.9307 8.08831L14.2329 8.75843H14.888L14.3733 9.2788L14.5726 10.0999L13.9317 9.63851L13.5244 9.9222L13.6622 10.2278H14.3173L13.8026 10.7481L13.9741 11.455L14.1515 10.9938L14.4537 11.664H15.1088L14.594 12.1843L14.6508 12.4181H15.3773L15.635 11.748L15.9373 12.4181H16.5923L16.0776 12.9385L16.2769 13.7596L15.636 13.2982Z" fill="white"/>
</g>
</g>
</svg>
