<svg width="20" height="15" viewBox="0 0 20 15" fill="none" xmlns="http://www.w3.org/2000/svg">
<mask id="mask0_270_60969" style="mask-type:alpha" maskUnits="userSpaceOnUse" x="0" y="0" width="20" height="15">
<rect width="20" height="15" fill="white"/>
</mask>
<g mask="url(#mask0_270_60969)">
<path fill-rule="evenodd" clip-rule="evenodd" d="M0 0V15H20V0H0Z" fill="#2E42A5"/>
<mask id="mask1_270_60969" style="mask-type:alpha" maskUnits="userSpaceOnUse" x="0" y="0" width="20" height="15">
<path fill-rule="evenodd" clip-rule="evenodd" d="M0 0V15H20V0H0Z" fill="white"/>
</mask>
<g mask="url(#mask1_270_60969)">
<rect width="11" height="9" fill="#2E42A5"/>
<mask id="mask2_270_60969" style="mask-type:alpha" maskUnits="userSpaceOnUse" x="0" y="0" width="11" height="9">
<rect width="11" height="9" fill="white"/>
</mask>
<g mask="url(#mask2_270_60969)">
<path d="M-1.25267 8.12491L1.22293 9.21066L11.3062 1.18049L12.612 -0.432968L9.9647 -0.795857L5.85199 2.66457L2.54167 4.9961L-1.25267 8.12491Z" fill="#F7FCFF"/>
<path d="M-0.913754 8.88561L0.347447 9.51569L12.1431 -0.582886H10.3722L-0.913754 8.88561Z" fill="#F50100"/>
<path d="M12.5027 8.1249L10.3056 9.5206L-0.0561752 1.18047L-1.36199 -0.432984L1.2853 -0.795875L5.39801 2.66456L8.70833 4.99608L12.5027 8.1249Z" fill="#F7FCFF"/>
<path d="M12.4182 8.67085L11.157 9.30093L6.13429 4.97721L4.64517 4.49413L-1.48764 -0.427451H0.283229L6.41259 4.37731L8.04069 4.95658L12.4182 8.67085Z" fill="#F50100"/>
<mask id="path-10-outside-1_270_60969" maskUnits="userSpaceOnUse" x="-1" y="-1" width="13" height="11" fill="black">
<rect fill="white" x="-1" y="-1" width="13" height="11"/>
<path fill-rule="evenodd" clip-rule="evenodd" d="M6 0H5V4H0V5H5V9H6V5H11V4H6V0Z"/>
</mask>
<path fill-rule="evenodd" clip-rule="evenodd" d="M6 0H5V4H0V5H5V9H6V5H11V4H6V0Z" fill="#F50100"/>
<path d="M5 0V-0.9375H4.0625V0H5ZM6 0H6.9375V-0.9375H6V0ZM5 4V4.9375H5.9375V4H5ZM0 4V3.0625H-0.9375V4H0ZM0 5H-0.9375V5.9375H0V5ZM5 5H5.9375V4.0625H5V5ZM5 9H4.0625V9.9375H5V9ZM6 9V9.9375H6.9375V9H6ZM6 5V4.0625H5.0625V5H6ZM11 5V5.9375H11.9375V5H11ZM11 4H11.9375V3.0625H11V4ZM6 4H5.0625V4.9375H6V4ZM5 0.9375H6V-0.9375H5V0.9375ZM5.9375 4V0H4.0625V4H5.9375ZM0 4.9375H5V3.0625H0V4.9375ZM0.9375 5V4H-0.9375V5H0.9375ZM5 4.0625H0V5.9375H5V4.0625ZM5.9375 9V5H4.0625V9H5.9375ZM6 8.0625H5V9.9375H6V8.0625ZM5.0625 5V9H6.9375V5H5.0625ZM11 4.0625H6V5.9375H11V4.0625ZM10.0625 4V5H11.9375V4H10.0625ZM6 4.9375H11V3.0625H6V4.9375ZM5.0625 0V4H6.9375V0H5.0625Z" fill="#F7FCFF" mask="url(#path-10-outside-1_270_60969)"/>
</g>
<path d="M16.2189 12.2275C15.5907 12.2275 15.1668 12.0794 14.8699 11.8328C14.5707 11.5842 14.3685 11.209 14.2371 10.6921C14.1054 10.1738 14.0506 9.53536 14.0301 8.78566C14.0157 8.25907 14.0184 7.68834 14.0213 7.0745C14.0221 6.89356 14.023 6.70886 14.0234 6.52045H18.476C18.555 7.99481 18.5766 9.41096 18.2921 10.4731C18.1434 11.0282 17.9168 11.4633 17.5918 11.7592C17.2719 12.0505 16.8343 12.2275 16.2189 12.2275Z" fill="#6DC2FF" stroke="#F7FCFF" stroke-width="0.5"/>
<mask id="mask3_270_60969" style="mask-type:alpha" maskUnits="userSpaceOnUse" x="13" y="6" width="6" height="7">
<path d="M16.2189 12.2275C15.5907 12.2275 15.1668 12.0794 14.8699 11.8328C14.5707 11.5842 14.3685 11.209 14.2371 10.6921C14.1054 10.1738 14.0506 9.53536 14.0301 8.78566C14.0157 8.25907 14.0184 7.68834 14.0213 7.0745C14.0221 6.89356 14.023 6.70886 14.0234 6.52045H18.476C18.555 7.99481 18.5766 9.41096 18.2921 10.4731C18.1434 11.0282 17.9168 11.4633 17.5918 11.7592C17.2719 12.0505 16.8343 12.2275 16.2189 12.2275Z" fill="white" stroke="white" stroke-width="0.5"/>
</mask>
<g mask="url(#mask3_270_60969)">
<path fill-rule="evenodd" clip-rule="evenodd" d="M15.3262 8.49189C15.3262 8.49189 15.0795 8.30946 14.9737 8.01389C14.868 7.71832 14.6587 6.93148 14.6587 6.86316C14.6587 6.79484 14.3802 6.86316 14.3802 6.86316C14.3802 6.86316 14.384 6.53042 14.4891 6.53042C14.5943 6.53042 14.5982 6.2219 14.8532 6.2996C15.1082 6.37729 15.3087 6.66221 15.5685 6.66221C15.8284 6.66221 16.9146 6.74507 17.0892 6.74507C17.2638 6.74507 17.7241 7.11361 17.7241 7.38947C17.7241 7.66533 17.5986 8.07633 17.4999 8.07633C17.4011 8.07633 17.2769 8.31547 17.0892 8.23654C16.9016 8.15761 16.4535 7.99506 16.0521 8.07633C15.6508 8.15761 15.5685 8.10652 15.5685 8.23654C15.5685 8.36656 15.3262 8.49189 15.3262 8.49189Z" fill="#E1E5E8"/>
<path fill-rule="evenodd" clip-rule="evenodd" d="M14.75 8.29919H17.9722L17.4172 9.01641H15.1405L14.75 8.29919Z" fill="#49801E"/>
<path d="M14.7081 11.4348C14.7081 11.4348 15.265 11.634 15.4977 11.6098C15.7555 11.583 15.9836 11.2892 16.1559 11.2892C16.3278 11.2892 16.6589 11.5831 16.916 11.6098C17.1491 11.634 17.6037 11.4348 17.6037 11.4348" stroke="white" stroke-width="0.666667"/>
<path d="M14.0965 10.5852C14.2891 10.4221 14.7081 10.4102 14.7081 10.4102C14.7081 10.4102 15.265 10.6094 15.4977 10.5852C15.7555 10.5584 15.9836 10.2646 16.1559 10.2646C16.3278 10.2646 16.6589 10.5585 16.916 10.5852C17.1491 10.6094 17.6037 10.4102 17.6037 10.4102C17.6037 10.4102 17.8578 10.1245 18.1768 10.4262" stroke="white" stroke-width="0.666667"/>
<path d="M14.038 9.70611L13.6165 9.18958C13.7818 9.05474 14.0593 8.92184 14.4643 8.77496L14.6609 8.76548C15.0809 8.8734 15.3616 8.92017 15.4645 8.90987C15.4984 8.90646 15.5551 8.87891 15.6586 8.81022C15.9527 8.61514 15.9813 8.59924 16.1559 8.59924C16.3155 8.59924 16.3484 8.61455 16.682 8.7947C16.7439 8.82789 16.7672 8.83996 16.8007 8.85605C16.8711 8.88986 16.9216 8.90709 16.9492 8.90986C17.0294 8.91789 17.1906 8.88048 17.4163 8.78967C17.7098 8.52293 18.0815 8.55056 18.4013 8.84192C18.6146 9.03628 18.7859 9.19329 18.9152 9.31308L18.462 9.80207C18.3343 9.68374 18.1644 9.52792 17.9523 9.33473C17.868 9.25791 17.8862 9.2584 17.8487 9.299L17.7334 9.38001C17.3832 9.52785 17.1068 9.59563 16.8828 9.57321C16.7626 9.56118 16.6464 9.52147 16.5122 9.45705C16.4672 9.43548 16.4351 9.41882 16.3652 9.38129C16.2042 9.29434 16.143 9.26591 16.1559 9.26591C16.184 9.26591 16.145 9.28758 16.0271 9.36578C15.8375 9.49158 15.7056 9.55571 15.531 9.57321C15.3379 9.59256 15.0369 9.54601 14.5966 9.43684C14.3106 9.54499 14.1206 9.63866 14.038 9.70611Z" fill="white"/>
</g>
<path d="M14.352 11.4961C14.352 11.4961 14.967 12.0851 14.5957 12.4842C14.2243 12.8833 13.8838 12.6515 13.8838 12.6515" stroke="#B85F3C" stroke-width="0.625"/>
<path d="M18.1562 11.4961C18.1562 11.4961 17.5412 12.0851 17.9125 12.4842C18.2839 12.8833 18.6244 12.6515 18.6244 12.6515" stroke="#B85F3C" stroke-width="0.625"/>
<path d="M13.9504 11.9707C13.9504 11.9707 15.0099 12.9832 16.3124 12.9832C17.6149 12.9832 18.663 12.2097 18.663 12.2097" stroke="#CB8B73" stroke-width="0.625"/>
</g>
</g>
</svg>
