<svg width="20" height="53" viewBox="0 0 20 53" fill="none" xmlns="http://www.w3.org/2000/svg">
<mask id="mask0_270_60903" style="mask-type:alpha" maskUnits="userSpaceOnUse" x="0" y="0" width="20" height="15">
<rect width="20" height="15" fill="white"/>
</mask>
<g mask="url(#mask0_270_60903)">
<path fill-rule="evenodd" clip-rule="evenodd" d="M0 0H20V15H0V0Z" fill="#2E42A5"/>
<rect width="11" height="9" fill="#2E42A5"/>
<mask id="mask1_270_60903" style="mask-type:alpha" maskUnits="userSpaceOnUse" x="0" y="0" width="11" height="9">
<rect width="11" height="9" fill="white"/>
</mask>
<g mask="url(#mask1_270_60903)">
<path d="M-1.25266 8.12488L1.22293 9.21063L11.3062 1.18046L12.612 -0.432999L9.96471 -0.795888L5.85199 2.66454L2.54168 4.99607L-1.25266 8.12488Z" fill="#F7FCFF"/>
<path d="M-0.91375 8.88559L0.347451 9.51567L12.1431 -0.582901H10.3722L-0.91375 8.88559Z" fill="#F50100"/>
<path d="M12.5027 8.12488L10.3056 9.52058L-0.0561714 1.18046L-1.36199 -0.433L1.2853 -0.79589L5.39802 2.66454L8.70833 4.99606L12.5027 8.12488Z" fill="#F7FCFF"/>
<path d="M12.4182 8.67084L11.157 9.30092L6.1343 4.9772L4.64517 4.49412L-1.48764 -0.427466H0.283235L6.4126 4.3773L8.04069 4.95656L12.4182 8.67084Z" fill="#F50100"/>
<mask id="path-9-outside-1_270_60903" maskUnits="userSpaceOnUse" x="-1" y="-1" width="13" height="11" fill="black">
<rect fill="white" x="-1" y="-1" width="13" height="11"/>
<path fill-rule="evenodd" clip-rule="evenodd" d="M6 0H5V4H0V5H5V9H6V5H11V4H6V0Z"/>
</mask>
<path fill-rule="evenodd" clip-rule="evenodd" d="M6 0H5V4H0V5H5V9H6V5H11V4H6V0Z" fill="#F50100"/>
<path d="M5 0V-0.9375H4.0625V0H5ZM6 0H6.9375V-0.9375H6V0ZM5 4V4.9375H5.9375V4H5ZM0 4V3.0625H-0.9375V4H0ZM0 5H-0.9375V5.9375H0V5ZM5 5H5.9375V4.0625H5V5ZM5 9H4.0625V9.9375H5V9ZM6 9V9.9375H6.9375V9H6ZM6 5V4.0625H5.0625V5H6ZM11 5V5.9375H11.9375V5H11ZM11 4H11.9375V3.0625H11V4ZM6 4H5.0625V4.9375H6V4ZM5 0.9375H6V-0.9375H5V0.9375ZM5.9375 4V0H4.0625V4H5.9375ZM0 4.9375H5V3.0625H0V4.9375ZM0.9375 5V4H-0.9375V5H0.9375ZM5 4.0625H0V5.9375H5V4.0625ZM5.9375 9V5H4.0625V9H5.9375ZM6 8.0625H5V9.9375H6V8.0625ZM5.0625 5V9H6.9375V5H5.0625ZM11 4.0625H6V5.9375H11V4.0625ZM10.0625 4V5H11.9375V4H10.0625ZM6 4.9375H11V3.0625H6V4.9375ZM5.0625 0V4H6.9375V0H5.0625Z" fill="#F7FCFF" mask="url(#path-9-outside-1_270_60903)"/>
</g>
</g>
<g clip-path="url(#clip0_270_60903)">
<path d="M5.92 12.2783L5.09996 13.0362L5.18117 11.9225L4.07739 11.7539L4.99869 11.123L4.44234 10.1549L5.50998 10.4819L5.92 9.44333L6.33002 10.4819L7.39766 10.1549L6.84131 11.123L7.76261 11.7539L6.65883 11.9225L6.74004 13.0362L5.92 12.2783Z" fill="#F7FCFF"/>
<path d="M13.24 8.29666L12.6933 8.80188L12.7474 8.05946L12.0116 7.94704L12.6258 7.52647L12.2549 6.88106L12.9667 7.09905L13.24 6.40666L13.5133 7.09905L14.2251 6.88106L13.8542 7.52647L14.4684 7.94704L13.7326 8.05946L13.7867 8.80188L13.24 8.29666Z" fill="#F7FCFF"/>
<path d="M14.52 2.96333L13.9733 3.46855L14.0274 2.72613L13.2916 2.61371L13.9058 2.19315L13.5349 1.54774L14.2467 1.76572L14.52 1.07333L14.7933 1.76572L15.5051 1.54774L15.1342 2.19315L15.7484 2.61371L15.0126 2.72613L15.0667 3.46855L14.52 2.96333Z" fill="#F7FCFF"/>
<path d="M17.72 5.63001L17.1733 6.13523L17.2274 5.3928L16.4916 5.28038L17.1058 4.85982L16.7349 4.21441L17.4467 4.4324L17.72 3.74001L17.9933 4.4324L18.7051 4.21441L18.3342 4.85982L18.9484 5.28038L18.2126 5.3928L18.2667 6.13523L17.72 5.63001Z" fill="#F7FCFF"/>
<path d="M15.16 13.2967L14.6133 13.8019L14.6674 13.0595L13.9316 12.947L14.5458 12.5265L14.1749 11.8811L14.8867 12.0991L15.16 11.4067L15.4333 12.0991L16.1451 11.8811L15.7742 12.5265L16.3884 12.947L15.6526 13.0595L15.7067 13.8019L15.16 13.2967Z" fill="#F7FCFF"/>
<path d="M17.4 9.13916L16.8445 9.43119L16.9506 8.81267L16.5013 8.37464L17.1223 8.2844L17.4 7.72166L17.6777 8.2844L18.2988 8.37464L17.8494 8.81267L17.9555 9.43119L17.4 9.13916Z" fill="#F7FCFF"/>
</g>
<path d="M14.8462 51.7782L16.3465 51.8029" stroke="#979797" stroke-width="2"/>
<defs>
<clipPath id="clip0_270_60903">
<rect width="15" height="13" fill="white" transform="translate(4 1)"/>
</clipPath>
</defs>
</svg>
