<svg width="20" height="15" viewBox="0 0 20 15" fill="none" xmlns="http://www.w3.org/2000/svg">
<mask id="mask0_270_60810" style="mask-type:alpha" maskUnits="userSpaceOnUse" x="0" y="0" width="20" height="15">
<rect width="20" height="15" fill="white"/>
</mask>
<g mask="url(#mask0_270_60810)">
<path fill-rule="evenodd" clip-rule="evenodd" d="M0 0V15H20V0H0Z" fill="#2E42A5"/>
<mask id="mask1_270_60810" style="mask-type:alpha" maskUnits="userSpaceOnUse" x="0" y="0" width="20" height="15">
<path fill-rule="evenodd" clip-rule="evenodd" d="M0 0V15H20V0H0Z" fill="white"/>
</mask>
<g mask="url(#mask1_270_60810)">
<rect width="11" height="9" fill="#2E42A5"/>
<mask id="mask2_270_60810" style="mask-type:alpha" maskUnits="userSpaceOnUse" x="0" y="0" width="11" height="9">
<rect width="11" height="9" fill="white"/>
</mask>
<g mask="url(#mask2_270_60810)">
<path d="M-1.25266 8.12491L1.22294 9.21066L11.3062 1.18049L12.612 -0.432968L9.96471 -0.795857L5.852 2.66457L2.54169 4.9961L-1.25266 8.12491Z" fill="#F7FCFF"/>
<path d="M-0.913757 8.88561L0.347444 9.51569L12.1431 -0.582886H10.3722L-0.913757 8.88561Z" fill="#F50100"/>
<path d="M12.5027 8.1249L10.3056 9.5206L-0.0561867 1.18047L-1.36201 -0.432984L1.28529 -0.795875L5.398 2.66456L8.70831 4.99608L12.5027 8.1249Z" fill="#F7FCFF"/>
<path d="M12.4182 8.67085L11.157 9.30093L6.13428 4.97721L4.64515 4.49413L-1.48766 -0.427451H0.283216L6.41258 4.37731L8.04068 4.95658L12.4182 8.67085Z" fill="#F50100"/>
<mask id="path-10-outside-1_270_60810" maskUnits="userSpaceOnUse" x="-1" y="-1" width="13" height="11" fill="black">
<rect fill="white" x="-1" y="-1" width="13" height="11"/>
<path fill-rule="evenodd" clip-rule="evenodd" d="M6 0H5V4H0V5H5V9H6V5H11V4H6V0Z"/>
</mask>
<path fill-rule="evenodd" clip-rule="evenodd" d="M6 0H5V4H0V5H5V9H6V5H11V4H6V0Z" fill="#F50100"/>
<path d="M5 0V-0.9375H4.0625V0H5ZM6 0H6.9375V-0.9375H6V0ZM5 4V4.9375H5.9375V4H5ZM0 4V3.0625H-0.9375V4H0ZM0 5H-0.9375V5.9375H0V5ZM5 5H5.9375V4.0625H5V5ZM5 9H4.0625V9.9375H5V9ZM6 9V9.9375H6.9375V9H6ZM6 5V4.0625H5.0625V5H6ZM11 5V5.9375H11.9375V5H11ZM11 4H11.9375V3.0625H11V4ZM6 4H5.0625V4.9375H6V4ZM5 0.9375H6V-0.9375H5V0.9375ZM5.9375 4V0H4.0625V4H5.9375ZM0 4.9375H5V3.0625H0V4.9375ZM0.9375 5V4H-0.9375V5H0.9375ZM5 4.0625H0V5.9375H5V4.0625ZM5.9375 9V5H4.0625V9H5.9375ZM6 8.0625H5V9.9375H6V8.0625ZM5.0625 5V9H6.9375V5H5.0625ZM11 4.0625H6V5.9375H11V4.0625ZM10.0625 4V5H11.9375V4H10.0625ZM6 4.9375H11V3.0625H6V4.9375ZM5.0625 0V4H6.9375V0H5.0625Z" fill="#F7FCFF" mask="url(#path-10-outside-1_270_60810)"/>
</g>
<path d="M13.7737 6.02045H13.5237V6.27045C13.5237 6.54002 13.5225 6.80459 13.5213 7.06314C13.5184 7.68093 13.5157 8.26433 13.5303 8.7993C13.551 9.55835 13.6068 10.2417 13.7525 10.8153C13.8986 11.3902 14.1407 11.877 14.5504 12.2173C14.9623 12.5596 15.5117 12.7275 16.2189 12.7275C16.9388 12.7275 17.5027 12.5166 17.9284 12.1289C18.349 11.746 18.612 11.2112 18.7751 10.6025C19.0989 9.39351 19.0503 7.80129 18.9621 6.25621L18.9487 6.02045H18.7125H13.7737Z" fill="#B7E1FF" stroke="#F7FCFF" stroke-width="0.5"/>
<mask id="mask3_270_60810" style="mask-type:alpha" maskUnits="userSpaceOnUse" x="13" y="5" width="7" height="8">
<path d="M13.7737 6.02045H13.5237V6.27045C13.5237 6.54002 13.5225 6.80459 13.5213 7.06314C13.5184 7.68093 13.5157 8.26433 13.5303 8.7993C13.551 9.55835 13.6068 10.2417 13.7525 10.8153C13.8986 11.3902 14.1407 11.877 14.5504 12.2173C14.9623 12.5596 15.5117 12.7275 16.2189 12.7275C16.9388 12.7275 17.5027 12.5166 17.9284 12.1289C18.349 11.746 18.612 11.2112 18.7751 10.6025C19.0989 9.39351 19.0503 7.80129 18.9621 6.25621L18.9487 6.02045H18.7125H13.7737Z" fill="white" stroke="white" stroke-width="0.5"/>
</mask>
<g mask="url(#mask3_270_60810)">
<rect x="15" y="11.25" width="3.75" height="1.25" fill="#2E42A5"/>
<g filter="url(#filter0_d_270_60810)">
<rect x="12.5" y="5" width="7.5" height="3.75" fill="#FDFF00"/>
</g>
<path d="M15.737 6.79784C15.7322 6.75089 15.7247 6.69015 15.7052 6.62627L16.0004 7.54349C15.9731 7.51638 15.944 7.49181 15.9227 7.47395C15.9186 7.4705 15.9146 7.4672 15.9109 7.46404C15.8924 7.44853 15.8774 7.43604 15.8621 7.42223C15.7989 7.3656 15.7681 7.32322 15.7633 7.2428C15.7595 7.17908 15.7565 7.11778 15.7537 7.06047C15.7486 6.95678 15.7441 6.86615 15.737 6.79784ZM15.5034 8.41156C15.5034 8.41156 15.5034 8.41156 15.5034 8.41156L15.5585 8.45587L15.5585 8.45588L15.5034 8.41156Z" fill="#F7FCFF" stroke="#272727" stroke-width="0.625"/>
<path d="M15.5164 8.77756H15.6414V11.2496H15.5164V8.77756Z" fill="#FDFF00"/>
<path fill-rule="evenodd" clip-rule="evenodd" d="M15.0627 10.5079H16.177C16.177 10.5079 16.1877 10.8294 16.0186 10.7699C15.8494 10.7104 16.0355 10.8294 15.7782 10.7699C15.5208 10.7104 15.294 10.9566 15.2363 10.8335C15.1786 10.7104 14.9547 10.8685 15.0087 10.6882C15.0627 10.5079 15.0627 10.5079 15.0627 10.5079Z" fill="#F7FCFF"/>
<rect x="15.0833" y="10.4774" width="1.08333" height="0.125" fill="#212123"/>
<path fill-rule="evenodd" clip-rule="evenodd" d="M15.2168 10.0409H16.1082C16.1082 10.0409 16.1168 10.2981 15.9815 10.2505C15.8462 10.2029 15.9951 10.2981 15.7892 10.2505C15.5833 10.2029 15.4019 10.3999 15.3557 10.3014C15.3096 10.2029 15.1305 10.3294 15.1737 10.1851C15.2168 10.0409 15.2168 10.0409 15.2168 10.0409Z" fill="#F7FCFF"/>
<rect x="15.2334" y="10.0166" width="0.866667" height="0.125" fill="#212123"/>
<path fill-rule="evenodd" clip-rule="evenodd" d="M15.0543 9.52808H16.02C16.02 9.52808 16.0293 9.7853 15.8827 9.73771C15.7361 9.69012 15.8975 9.7853 15.6744 9.73771C15.4514 9.69012 15.2548 9.88705 15.2048 9.78859C15.1548 9.69012 14.9608 9.81655 15.0076 9.67231C15.0543 9.52808 15.0543 9.52808 15.0543 9.52808Z" fill="#F7FCFF"/>
<rect x="15.0722" y="9.50375" width="0.938889" height="0.125" fill="#212123"/>
<path fill-rule="evenodd" clip-rule="evenodd" d="M15.1335 9.09763H16.0249C16.0249 9.09763 16.0335 9.41915 15.8982 9.35966C15.7628 9.30018 15.9118 9.41915 15.7059 9.35966C15.5 9.30018 15.3185 9.54635 15.2724 9.42326C15.2262 9.30018 15.0471 9.45822 15.0903 9.27792C15.1335 9.09763 15.1335 9.09763 15.1335 9.09763Z" fill="#F7FCFF"/>
<rect x="15.15" y="9.0672" width="0.866667" height="0.125" fill="#212123"/>
<path d="M16.7141 9.09006H16.8391V11.5621H16.7141V9.09006Z" fill="#FDFF00"/>
<path fill-rule="evenodd" clip-rule="evenodd" d="M16.3127 10.6098H17.427C17.427 10.6098 17.4377 10.8671 17.2686 10.8195C17.0994 10.7719 17.2855 10.8671 17.0282 10.8195C16.7708 10.7719 16.544 10.9688 16.4863 10.8703C16.4286 10.7719 16.2047 10.8983 16.2587 10.7541C16.3127 10.6098 16.3127 10.6098 16.3127 10.6098Z" fill="#F7FCFF"/>
<rect x="16.3333" y="10.5855" width="1.08333" height="0.125" fill="#212123"/>
<path fill-rule="evenodd" clip-rule="evenodd" d="M16.4779 10.144H17.3533C17.3533 10.144 17.3618 10.3369 17.2289 10.3012C17.096 10.2655 17.2422 10.3369 17.04 10.3012C16.8378 10.2655 16.6596 10.4132 16.6143 10.3394C16.5689 10.2655 16.393 10.3603 16.4354 10.2522C16.4779 10.144 16.4779 10.144 16.4779 10.144Z" fill="#F7FCFF"/>
<rect x="16.4941" y="10.1254" width="0.85119" height="0.125" fill="#212123"/>
<path fill-rule="evenodd" clip-rule="evenodd" d="M16.3037 9.63116H17.2588C17.2588 9.63116 17.268 9.82408 17.123 9.78839C16.9781 9.7527 17.1376 9.82408 16.917 9.78839C16.6964 9.7527 16.502 9.9004 16.4526 9.82655C16.4031 9.7527 16.2112 9.84752 16.2575 9.73934C16.3037 9.63116 16.3037 9.63116 16.3037 9.63116Z" fill="#F7FCFF"/>
<rect x="16.3214" y="9.61255" width="0.928571" height="0.125" fill="#212123"/>
<path fill-rule="evenodd" clip-rule="evenodd" d="M16.3886 9.19955H17.264C17.264 9.19955 17.2725 9.45677 17.1396 9.40919C17.0067 9.3616 17.1529 9.45677 16.9507 9.40919C16.7485 9.3616 16.5703 9.55853 16.525 9.46006C16.4796 9.3616 16.3037 9.48803 16.3461 9.34379C16.3886 9.19955 16.3886 9.19955 16.3886 9.19955Z" fill="#F7FCFF"/>
<rect x="16.4048" y="9.17523" width="0.85119" height="0.125" fill="#212123"/>
<path d="M18.4315 8.78662H18.5565V12.0733H18.4315V8.78662Z" fill="#FDFF00"/>
<path fill-rule="evenodd" clip-rule="evenodd" d="M17.9207 10.7832H19.3388C19.3388 10.7832 19.3525 11.0404 19.1372 10.9928C18.9219 10.9452 19.1588 11.0404 18.8313 10.9928C18.5037 10.9452 18.2151 11.1422 18.1417 11.0437C18.0682 10.9452 17.7833 11.0716 17.852 10.9274C17.9207 10.7832 17.9207 10.7832 17.9207 10.7832Z" fill="#F7FCFF"/>
<rect x="17.947" y="10.7589" width="1.37879" height="0.125" fill="#212123"/>
<path fill-rule="evenodd" clip-rule="evenodd" d="M18.1309 10.1597H19.2451C19.2451 10.1597 19.2559 10.3526 19.0867 10.3169C18.9176 10.2812 19.1037 10.3526 18.8463 10.3169C18.589 10.2812 18.3622 10.4289 18.3045 10.3551C18.2468 10.2812 18.0229 10.376 18.0769 10.2678C18.1309 10.1597 18.1309 10.1597 18.1309 10.1597Z" fill="#F7FCFF"/>
<rect x="18.1515" y="10.1443" width="1.08333" height="0.125" fill="#212123"/>
<path fill-rule="evenodd" clip-rule="evenodd" d="M18.0172 9.33432H19.1315C19.1315 9.33432 19.1422 9.59154 18.9731 9.54395C18.8039 9.49636 18.9901 9.59154 18.7327 9.54395C18.4753 9.49636 18.2485 9.6933 18.1908 9.59483C18.1331 9.49636 17.9093 9.6228 17.9633 9.47856C18.0172 9.33432 18.0172 9.33432 18.0172 9.33432Z" fill="#F7FCFF"/>
<rect x="18.0379" y="9.31" width="1.08333" height="0.125" fill="#212123"/>
<path fill-rule="evenodd" clip-rule="evenodd" d="M15.1157 11.0542C15.1157 11.0542 15.6942 11.3686 16.5763 11.3145C17.4583 11.2603 17.395 11.4305 17.6238 11.1883C17.8526 10.9461 17.8727 11.0001 18.158 10.873C18.4434 10.7458 18.4843 10.6259 18.6314 10.6259C18.7786 10.6259 20.3453 10.563 20.3453 10.563C20.3453 10.563 20.2019 10.6917 20.2019 10.873C20.2019 11.0542 20.2975 11.0728 20.2019 11.2372C20.1063 11.4016 19.9983 11.6214 19.8596 11.6852C19.7209 11.749 17.8484 11.7893 17.3709 11.7893C16.8934 11.7893 15.9128 11.8425 15.7999 11.7893C15.6871 11.7362 15.1157 11.0542 15.1157 11.0542Z" fill="#272727"/>
<path fill-rule="evenodd" clip-rule="evenodd" d="M13.8235 9.804L14.3818 9.28976C14.3818 9.28976 14.4062 9.28976 14.5099 9.54688C14.6137 9.804 14.6186 10.1557 14.7265 10.0678C14.8344 9.98001 15.0005 10.0611 15.0705 9.804C15.1404 9.54688 15.136 9.21393 15.2249 9.3804C15.3138 9.54688 15.261 9.30352 15.4029 9.68568C15.5448 10.0678 15.601 9.52149 15.6791 10.0678C15.7571 10.6142 15.8231 10.8027 15.8231 10.9298C15.8231 11.0569 16.5339 11.4356 16.2613 11.6964C15.9887 11.9572 16.0658 11.8342 15.8231 11.9982C15.5805 12.1622 15.3318 12.0669 15.6791 12.1957C16.0263 12.3245 15.9766 12.558 15.9766 12.7302C15.9766 12.9023 15.9552 12.9795 15.6791 12.9409C15.4029 12.9023 15.0671 13.0398 15 13.0398C14.9329 13.0398 14.1234 12.8748 14.1234 12.5352C14.1234 12.1957 13.8235 9.804 13.8235 9.804Z" fill="#CE6201"/>
</g>
</g>
</g>
<defs>
<filter id="filter0_d_270_60810" x="12.5" y="5" width="7.5" height="3.75" filterUnits="userSpaceOnUse" color-interpolation-filters="sRGB">
<feFlood flood-opacity="0" result="BackgroundImageFix"/>
<feColorMatrix in="SourceAlpha" type="matrix" values="0 0 0 0 0 0 0 0 0 0 0 0 0 0 0 0 0 0 127 0" result="hardAlpha"/>
<feOffset/>
<feColorMatrix type="matrix" values="0 0 0 0 0 0 0 0 0 0 0 0 0 0 0 0 0 0 0.5 0"/>
<feBlend mode="normal" in2="BackgroundImageFix" result="effect1_dropShadow_270_60810"/>
<feBlend mode="normal" in="SourceGraphic" in2="effect1_dropShadow_270_60810" result="shape"/>
</filter>
</defs>
</svg>
