<svg width="20" height="15" viewBox="0 0 20 15" fill="none" xmlns="http://www.w3.org/2000/svg">
<mask id="mask0_270_60784" style="mask-type:alpha" maskUnits="userSpaceOnUse" x="0" y="0" width="20" height="15">
<rect width="20" height="15" fill="white"/>
</mask>
<g mask="url(#mask0_270_60784)">
<path fill-rule="evenodd" clip-rule="evenodd" d="M0 0V15H20V0H0Z" fill="#2E42A5"/>
<mask id="mask1_270_60784" style="mask-type:alpha" maskUnits="userSpaceOnUse" x="0" y="0" width="20" height="15">
<path fill-rule="evenodd" clip-rule="evenodd" d="M0 0V15H20V0H0Z" fill="white"/>
</mask>
<g mask="url(#mask1_270_60784)">
<rect width="11" height="9" fill="#2E42A5"/>
<mask id="mask2_270_60784" style="mask-type:alpha" maskUnits="userSpaceOnUse" x="0" y="0" width="11" height="9">
<rect width="11" height="9" fill="white"/>
</mask>
<g mask="url(#mask2_270_60784)">
<path d="M-1.25266 8.12488L1.22294 9.21063L11.3062 1.18046L12.612 -0.432999L9.96471 -0.795888L5.852 2.66454L2.54169 4.99607L-1.25266 8.12488Z" fill="#F7FCFF"/>
<path d="M-0.913757 8.88555L0.347444 9.51562L12.1431 -0.582947H10.3722L-0.913757 8.88555Z" fill="#F50100"/>
<path d="M12.5027 8.12487L10.3056 9.52057L-0.0561867 1.18044L-1.36201 -0.433015L1.28529 -0.795905L5.398 2.66453L8.70831 4.99605L12.5027 8.12487Z" fill="#F7FCFF"/>
<path d="M12.4182 8.67082L11.157 9.3009L6.13428 4.97718L4.64515 4.4941L-1.48766 -0.427482H0.283216L6.41258 4.37728L8.04068 4.95655L12.4182 8.67082Z" fill="#F50100"/>
<mask id="path-10-outside-1_270_60784" maskUnits="userSpaceOnUse" x="-1" y="-1" width="13" height="11" fill="black">
<rect fill="white" x="-1" y="-1" width="13" height="11"/>
<path fill-rule="evenodd" clip-rule="evenodd" d="M6 0H5V4H0V5H5V9H6V5H11V4H6V0Z"/>
</mask>
<path fill-rule="evenodd" clip-rule="evenodd" d="M6 0H5V4H0V5H5V9H6V5H11V4H6V0Z" fill="#F50100"/>
<path d="M5 0V-0.9375H4.0625V0H5ZM6 0H6.9375V-0.9375H6V0ZM5 4V4.9375H5.9375V4H5ZM0 4V3.0625H-0.9375V4H0ZM0 5H-0.9375V5.9375H0V5ZM5 5H5.9375V4.0625H5V5ZM5 9H4.0625V9.9375H5V9ZM6 9V9.9375H6.9375V9H6ZM6 5V4.0625H5.0625V5H6ZM11 5V5.9375H11.9375V5H11ZM11 4H11.9375V3.0625H11V4ZM6 4H5.0625V4.9375H6V4ZM5 0.9375H6V-0.9375H5V0.9375ZM5.9375 4V0H4.0625V4H5.9375ZM0 4.9375H5V3.0625H0V4.9375ZM0.9375 5V4H-0.9375V5H0.9375ZM5 4.0625H0V5.9375H5V4.0625ZM5.9375 9V5H4.0625V9H5.9375ZM6 8.0625H5V9.9375H6V8.0625ZM5.0625 5V9H6.9375V5H5.0625ZM11 4.0625H6V5.9375H11V4.0625ZM10.0625 4V5H11.9375V4H10.0625ZM6 4.9375H11V3.0625H6V4.9375ZM5.0625 0V4H6.9375V0H5.0625Z" fill="#F7FCFF" mask="url(#path-10-outside-1_270_60784)"/>
</g>
<path fill-rule="evenodd" clip-rule="evenodd" d="M12.6542 6.27045V10.3512C12.6542 10.3512 12.5937 13.7275 15.7054 13.7275C18.8171 13.7275 18.8171 10.3512 18.8171 10.3512V6.27045H12.6542Z" fill="#3B7E05" stroke="#F7FCFF" stroke-width="0.5"/>
<path fill-rule="evenodd" clip-rule="evenodd" d="M12.6482 12.4304L13.1439 11.9327C13.9186 12.8896 14.7335 13.3553 15.6 13.3553C16.4663 13.3553 17.2805 12.8896 18.054 11.9329L18.3362 12.2158L18.3482 12.1981C18.5207 12.3441 18.6344 12.4807 18.689 12.639C18.778 12.8968 18.683 13.1446 18.4745 13.2757C18.4228 13.3082 18.3818 13.3316 18.3453 13.3486C18.2606 13.388 18.1928 13.4051 18.0921 13.3767C17.9896 13.3478 17.9035 13.2689 17.8589 13.1604C17.1558 13.7822 16.4012 14.0985 15.6 14.0985C14.8056 14.0985 14.0567 13.7876 13.3581 13.1763C13.3115 13.283 13.2244 13.3597 13.122 13.3866C13.0208 13.4132 12.9533 13.3949 12.8694 13.3541C12.8332 13.3364 12.7926 13.3123 12.7415 13.2789C12.5353 13.1442 12.4447 12.8949 12.5381 12.6386C12.5635 12.5689 12.6043 12.5043 12.6571 12.4414C12.6541 12.4378 12.6511 12.4341 12.6482 12.4304Z" fill="#FFD018"/>
<path d="M13.1439 11.9327L13.3382 11.7754L13.1631 11.5592L12.9668 11.7563L13.1439 11.9327ZM12.6482 12.4304L12.471 12.254L12.3125 12.4132L12.4539 12.5878L12.6482 12.4304ZM18.054 11.9329L18.231 11.7564L18.0346 11.5594L17.8596 11.7758L18.054 11.9329ZM18.3362 12.2158L18.1592 12.3924L18.3736 12.6073L18.5434 12.3557L18.3362 12.2158ZM18.3482 12.1981L18.5097 12.0072L18.297 11.8271L18.141 12.0582L18.3482 12.1981ZM18.689 12.639L18.9254 12.5575V12.5575L18.689 12.639ZM18.4745 13.2757L18.6076 13.4873L18.6076 13.4873L18.4745 13.2757ZM18.3453 13.3486L18.2397 13.1219L18.3453 13.3486ZM18.0921 13.3767L18.16 13.1361L18.0921 13.3767ZM17.8589 13.1604L18.0901 13.0654L17.9566 12.7402L17.6933 12.9731L17.8589 13.1604ZM13.3581 13.1763L13.5228 12.9882L13.2659 12.7633L13.1291 13.0761L13.3581 13.1763ZM13.122 13.3866L13.0584 13.1448H13.0584L13.122 13.3866ZM12.8694 13.3541L12.76 13.5788L12.76 13.5788L12.8694 13.3541ZM12.7415 13.2789L12.6047 13.4882H12.6047L12.7415 13.2789ZM12.5381 12.6386L12.3032 12.553L12.5381 12.6386ZM12.6571 12.4414L12.8485 12.6022L12.9814 12.444L12.8511 12.2837L12.6571 12.4414ZM12.9668 11.7563L12.471 12.254L12.8253 12.6069L13.321 12.1092L12.9668 11.7563ZM15.6 13.1053C14.8355 13.1053 14.0852 12.698 13.3382 11.7754L12.9496 12.0901C13.7521 13.0812 14.6315 13.6053 15.6 13.6053V13.1053ZM17.8596 11.7758C17.1139 12.6981 16.3643 13.1053 15.6 13.1053V13.6053C16.5684 13.6053 17.4472 13.0812 18.2485 12.0901L17.8596 11.7758ZM18.5132 12.0392L18.231 11.7564L17.877 12.1095L18.1592 12.3924L18.5132 12.0392ZM18.141 12.0582L18.129 12.0759L18.5434 12.3557L18.5554 12.3379L18.141 12.0582ZM18.9254 12.5575C18.8495 12.3376 18.6969 12.1657 18.5097 12.0072L18.1867 12.3889C18.3445 12.5225 18.4193 12.6238 18.4527 12.7206L18.9254 12.5575ZM18.6076 13.4873C18.9151 13.2939 19.0519 12.9244 18.9254 12.5575L18.4527 12.7206C18.504 12.8693 18.4508 12.9952 18.3414 13.064L18.6076 13.4873ZM18.4508 13.5752C18.5011 13.5518 18.5522 13.5221 18.6076 13.4873L18.3414 13.064C18.2934 13.0942 18.2624 13.1114 18.2397 13.1219L18.4508 13.5752ZM18.0243 13.6173C18.1034 13.6396 18.1807 13.6467 18.2596 13.6356C18.3352 13.6249 18.3992 13.5992 18.4508 13.5752L18.2397 13.1219C18.2067 13.1373 18.1944 13.1399 18.1898 13.1405C18.1885 13.1407 18.1815 13.1422 18.16 13.1361L18.0243 13.6173ZM17.6276 13.2553C17.6988 13.4286 17.8415 13.5658 18.0243 13.6173L18.16 13.1361C18.1378 13.1298 18.1081 13.1092 18.0901 13.0654L17.6276 13.2553ZM15.6 14.3485C16.4733 14.3485 17.2847 14.0019 18.0245 13.3476L17.6933 12.9731C17.0269 13.5625 16.3292 13.8485 15.6 13.8485V14.3485ZM13.1935 13.3644C13.9288 14.0079 14.7342 14.3485 15.6 14.3485V13.8485C14.8769 13.8485 14.1846 13.5673 13.5228 12.9882L13.1935 13.3644ZM13.1857 13.6284C13.3682 13.5803 13.5126 13.447 13.5872 13.2765L13.1291 13.0761C13.1103 13.1191 13.0806 13.139 13.0584 13.1448L13.1857 13.6284ZM12.76 13.5788C12.8111 13.6037 12.8746 13.6306 12.95 13.6425C13.0287 13.655 13.1061 13.6493 13.1857 13.6284L13.0584 13.1448C13.0367 13.1505 13.0298 13.1489 13.0285 13.1487C13.0238 13.148 13.0116 13.1452 12.9789 13.1293L12.76 13.5788ZM12.6047 13.4882C12.6594 13.5239 12.7101 13.5545 12.76 13.5788L12.9789 13.1293C12.9563 13.1183 12.9257 13.1007 12.8782 13.0696L12.6047 13.4882ZM12.3032 12.553C12.1703 12.9176 12.3006 13.2895 12.6047 13.4882L12.8782 13.0696C12.77 12.9989 12.719 12.8721 12.773 12.7243L12.3032 12.553ZM12.4656 12.2806C12.3996 12.3592 12.3412 12.4489 12.3032 12.553L12.773 12.7243C12.7858 12.689 12.809 12.6493 12.8485 12.6022L12.4656 12.2806ZM12.4539 12.5878C12.4569 12.5915 12.46 12.5953 12.4631 12.5991L12.8511 12.2837C12.8482 12.2802 12.8453 12.2767 12.8425 12.2731L12.4539 12.5878Z" fill="white"/>
<path fill-rule="evenodd" clip-rule="evenodd" d="M13.7224 7.16264L13.7919 7.18813C13.8487 7.05818 13.8581 6.95917 13.7919 6.89561L13.7901 6.89268C13.7746 6.86857 13.7472 6.82576 13.7919 6.73428L13.76 6.66888C13.6953 6.80133 13.6661 6.89691 13.7167 6.96135L13.7193 6.96463L13.7224 6.96738C13.7517 6.99376 13.764 7.0675 13.7224 7.16264ZM13.7224 8.10858L13.7919 8.13407C13.8487 8.00412 13.8581 7.90512 13.7919 7.84155L13.7901 7.83862C13.7746 7.81452 13.7472 7.77171 13.7919 7.68022L13.76 7.61483C13.6953 7.74728 13.6661 7.84286 13.7167 7.90729L13.7193 7.91058L13.7224 7.91333C13.7517 7.93971 13.764 8.01345 13.7224 8.10858ZM13.7919 8.97867L13.7224 8.95318C13.764 8.85804 13.7517 8.7843 13.7224 8.75792L13.7193 8.75518L13.7167 8.75189C13.6661 8.68745 13.6953 8.59187 13.76 8.45942L13.7919 8.52482C13.7472 8.6163 13.7746 8.65911 13.7901 8.68322L13.7919 8.68615C13.8581 8.74971 13.8487 8.84872 13.7919 8.97867ZM14.2078 9.96669L14.2774 9.99218C14.3342 9.86223 14.3436 9.76322 14.2774 9.69966L14.2755 9.69673C14.2601 9.67262 14.2326 9.62981 14.2774 9.53833L14.2455 9.47294C14.1807 9.60538 14.1516 9.70096 14.2022 9.7654L14.2048 9.76869L14.2078 9.77144C14.2371 9.79782 14.2494 9.87156 14.2078 9.96669ZM13.7009 10.803L13.6314 10.7775C13.673 10.6824 13.6607 10.6086 13.6314 10.5822L13.6283 10.5795L13.6257 10.5762C13.5751 10.5118 13.6043 10.4162 13.669 10.2837L13.7009 10.3491C13.6562 10.4406 13.6836 10.4834 13.699 10.5075L13.7009 10.5105C13.7671 10.574 13.7577 10.673 13.7009 10.803ZM13.6314 11.7234L13.7009 11.7489C13.7577 11.619 13.7671 11.52 13.7009 11.4564L13.699 11.4535C13.6836 11.4294 13.6562 11.3866 13.7009 11.2951L13.669 11.2297C13.6043 11.3621 13.5751 11.4577 13.6257 11.5222L13.6283 11.5254L13.6314 11.5282C13.6607 11.5546 13.673 11.6283 13.6314 11.7234ZM16.7045 11.7489L16.635 11.7234C16.6766 11.6283 16.6643 11.5546 16.635 11.5282L16.632 11.5254L16.6294 11.5222C16.5787 11.4577 16.6079 11.3621 16.6727 11.2297L16.7045 11.2951C16.6598 11.3866 16.6872 11.4294 16.7027 11.4535L16.7045 11.4564C16.7708 11.52 16.7614 11.619 16.7045 11.7489ZM16.635 10.8113L16.7045 10.8368C16.7614 10.7068 16.7708 10.6078 16.7045 10.5443L16.7027 10.5413C16.6872 10.5172 16.6598 10.4744 16.7045 10.3829L16.6727 10.3175C16.6079 10.45 16.5787 10.5456 16.6294 10.61L16.632 10.6133L16.635 10.616C16.6643 10.6424 16.6766 10.7162 16.635 10.8113ZM16.7045 9.92461L16.635 9.89912C16.6766 9.80399 16.6643 9.73025 16.635 9.70387L16.632 9.70112L16.6294 9.69783C16.5787 9.6334 16.6079 9.53782 16.6727 9.40537L16.7045 9.47076C16.6598 9.56225 16.6872 9.60506 16.7027 9.62916L16.7045 9.63209C16.7708 9.69566 16.7614 9.79466 16.7045 9.92461ZM16.6047 9.02075L16.6742 9.04624C16.731 8.91629 16.7404 8.81728 16.6742 8.75371L16.6723 8.75079C16.6569 8.72668 16.6295 8.68387 16.6742 8.59239L16.6423 8.52699C16.5776 8.65944 16.5484 8.75502 16.599 8.81945L16.6016 8.82274L16.6047 8.82549C16.634 8.85187 16.6463 8.92561 16.6047 9.02075ZM16.6742 8.10029L16.6047 8.0748C16.6463 7.97967 16.634 7.90593 16.6047 7.87954L16.6016 7.8768L16.599 7.87351C16.5484 7.80907 16.5776 7.71349 16.6423 7.58105L16.6742 7.64644C16.6295 7.73792 16.6569 7.78073 16.6723 7.80484L16.6742 7.80777C16.7404 7.87133 16.731 7.97034 16.6742 8.10029ZM16.6047 7.19642L16.6742 7.22191C16.731 7.09196 16.7404 6.99295 16.6742 6.92939C16.6736 6.92845 16.673 6.92747 16.6723 6.92646C16.6569 6.90235 16.6295 6.85954 16.6742 6.76806L16.6423 6.70267C16.5776 6.83511 16.5484 6.93069 16.599 6.99513L16.6016 6.99842L16.6047 7.00117C16.634 7.02755 16.6463 7.10129 16.6047 7.19642Z" fill="#F50100"/>
<path fill-rule="evenodd" clip-rule="evenodd" d="M14.2251 6.75922C14.2301 6.74949 14.233 6.73826 14.233 6.72632C14.233 6.689 14.205 6.65875 14.1705 6.65875C14.136 6.65875 14.108 6.689 14.108 6.72632C14.108 6.74241 14.1132 6.75718 14.1219 6.76879L13.8854 7.13498L13.91 7.1547L14.1464 6.78868C14.1538 6.79204 14.162 6.79389 14.1705 6.79389C14.1827 6.79389 14.194 6.79013 14.2036 6.78364L14.4524 7.15494L14.4767 7.13474L14.2251 6.75922ZM14.2166 7.076C14.2268 7.06398 14.233 7.04796 14.233 7.03037C14.233 6.99306 14.205 6.96281 14.1705 6.96281C14.136 6.96281 14.108 6.99306 14.108 7.03037C14.108 7.05313 14.1184 7.07326 14.1344 7.0855L14.0751 7.15677H13.6736C13.6736 7.15677 13.7176 7.25741 13.8545 7.28398C13.8963 7.32372 14.0032 7.39767 14.0032 7.39767L13.9422 7.47176H14.3751V7.39767C14.4806 7.39688 14.5202 7.3136 14.5343 7.28387C14.5402 7.27161 14.5417 7.26846 14.5417 7.28398C14.5417 7.33714 14.6187 7.28398 14.6187 7.28398C14.6187 7.28398 14.7464 7.15677 14.7464 7.03553C14.7464 6.9143 14.4792 7.15677 14.4792 7.15677H14.2979L14.2166 7.076ZM13.6736 8.10272H14.0751L14.1344 8.03145C14.1184 8.0192 14.108 7.99908 14.108 7.97632C14.108 7.939 14.136 7.90875 14.1705 7.90875C14.205 7.90875 14.233 7.939 14.233 7.97632C14.233 7.99391 14.2268 8.00993 14.2166 8.02195L14.2979 8.10272H14.4792C14.4792 8.10272 14.7464 7.86024 14.7464 7.98148C14.7464 8.10272 14.6187 8.22993 14.6187 8.22993C14.6187 8.22993 14.5417 8.28308 14.5417 8.22993C14.5417 8.21441 14.5402 8.21755 14.5343 8.22982C14.5202 8.25954 14.4806 8.34282 14.3751 8.34361V8.41771H13.9422L14.0032 8.34361C14.0032 8.34361 13.8963 8.26967 13.8545 8.22993C13.7176 8.20335 13.6736 8.10272 13.6736 8.10272ZM14.2251 7.70517C14.2301 7.69543 14.233 7.68421 14.233 7.67227C14.233 7.63495 14.205 7.6047 14.1705 7.6047C14.136 7.6047 14.108 7.63495 14.108 7.67227C14.108 7.68835 14.1132 7.70313 14.1219 7.71473L13.8854 8.08092L13.91 8.10065L14.1464 7.73463C14.1538 7.73798 14.162 7.73983 14.1705 7.73983C14.1827 7.73983 14.194 7.73608 14.2036 7.72959L14.4524 8.10089L14.4767 8.08069L14.2251 7.70517ZM13.6736 8.94731H14.0751L14.1344 8.87604C14.1184 8.8638 14.108 8.84367 14.108 8.82091C14.108 8.7836 14.136 8.75335 14.1705 8.75335C14.205 8.75335 14.233 8.7836 14.233 8.82091C14.233 8.8385 14.2268 8.85452 14.2166 8.86654L14.2979 8.94731H14.4792C14.4792 8.94731 14.7464 8.70484 14.7464 8.82607C14.7464 8.94731 14.6187 9.07453 14.6187 9.07453C14.6187 9.07453 14.5417 9.12768 14.5417 9.07453C14.5417 9.059 14.5402 9.06215 14.5343 9.07441C14.5202 9.10414 14.4806 9.18742 14.3751 9.18821V9.2623H13.9422L14.0032 9.18821C14.0032 9.18821 13.8963 9.11426 13.8545 9.07453C13.7176 9.04795 13.6736 8.94731 13.6736 8.94731ZM14.2251 8.54976C14.2301 8.54003 14.233 8.52881 14.233 8.51686C14.233 8.47954 14.205 8.44929 14.1705 8.44929C14.136 8.44929 14.108 8.47954 14.108 8.51686C14.108 8.53295 14.1132 8.54772 14.1219 8.55933L13.8854 8.92552L13.91 8.94524L14.1464 8.57922C14.1538 8.58258 14.162 8.58443 14.1705 8.58443C14.1827 8.58443 14.194 8.58067 14.2036 8.57418L14.4524 8.94548L14.4767 8.92528L14.2251 8.54976ZM14.159 9.96082H14.5606L14.6198 9.88956C14.6039 9.87731 14.5934 9.85718 14.5934 9.83443C14.5934 9.79711 14.6214 9.76686 14.6559 9.76686C14.6905 9.76686 14.7184 9.79711 14.7184 9.83443C14.7184 9.85202 14.7122 9.86803 14.702 9.88006L14.7833 9.96082H14.9646C14.9646 9.96082 15.2319 9.71835 15.2319 9.83959C15.2319 9.96082 15.1041 10.088 15.1041 10.088C15.1041 10.088 15.0271 10.1412 15.0271 10.088C15.0271 10.0725 15.0256 10.0757 15.0198 10.0879C15.0056 10.1177 14.966 10.2009 14.8605 10.2017V10.2758H14.4277L14.4887 10.2017C14.4887 10.2017 14.3817 10.1278 14.34 10.088C14.203 10.0615 14.159 9.96082 14.159 9.96082ZM14.7106 9.56328C14.7156 9.55354 14.7184 9.54232 14.7184 9.53037C14.7184 9.49306 14.6905 9.46281 14.6559 9.46281C14.6214 9.46281 14.5934 9.49306 14.5934 9.53037C14.5934 9.54646 14.5986 9.56124 14.6073 9.57284L14.3708 9.93903L14.3955 9.95876L14.6319 9.59274C14.6393 9.59609 14.6474 9.59794 14.6559 9.59794C14.6681 9.59794 14.6795 9.59419 14.6891 9.58769L14.9378 9.95899L14.9621 9.9388L14.7106 9.56328ZM13.5826 10.7716H13.9841L14.0433 10.7004C14.0274 10.6881 14.017 10.668 14.017 10.6452C14.017 10.6079 14.045 10.5777 14.0795 10.5777C14.114 10.5777 14.142 10.6079 14.142 10.6452C14.142 10.6628 14.1358 10.6788 14.1256 10.6909L14.2068 10.7716H14.3882C14.3882 10.7716 14.6554 10.5292 14.6554 10.6504C14.6554 10.7716 14.5276 10.8988 14.5276 10.8988C14.5276 10.8988 14.4506 10.952 14.4506 10.8988C14.4506 10.8833 14.4491 10.8865 14.4433 10.8987C14.4292 10.9285 14.3896 11.0117 14.2841 11.0125V11.0866H13.8512L13.9122 11.0125C13.9122 11.0125 13.8053 10.9386 13.7635 10.8988C13.6266 10.8723 13.5826 10.7716 13.5826 10.7716ZM14.1341 10.3741C14.1391 10.3644 14.142 10.3531 14.142 10.3412C14.142 10.3039 14.114 10.2736 14.0795 10.2736C14.045 10.2736 14.017 10.3039 14.017 10.3412C14.017 10.3573 14.0222 10.372 14.0309 10.3837L13.7944 10.7498L13.819 10.7696L14.0554 10.4035C14.0628 10.4069 14.071 10.4088 14.0795 10.4088C14.0917 10.4088 14.103 10.405 14.1126 10.3985L14.3613 10.7698L14.3857 10.7496L14.1341 10.3741ZM13.5826 11.7176H13.9841L14.0433 11.6463C14.0274 11.6341 14.017 11.6139 14.017 11.5912C14.017 11.5539 14.045 11.5236 14.0795 11.5236C14.114 11.5236 14.142 11.5539 14.142 11.5912C14.142 11.6088 14.1358 11.6248 14.1256 11.6368L14.2068 11.7176H14.3882C14.3882 11.7176 14.6554 11.4751 14.6554 11.5963C14.6554 11.7176 14.5276 11.8448 14.5276 11.8448C14.5276 11.8448 14.4506 11.8979 14.4506 11.8448C14.4506 11.8293 14.4491 11.8324 14.4433 11.8447C14.4292 11.8744 14.3896 11.9577 14.2841 11.9585V12.0326H13.8512L13.9122 11.9585C13.9122 11.9585 13.8053 11.8845 13.7635 11.8448C13.6266 11.8182 13.5826 11.7176 13.5826 11.7176ZM14.1341 11.32C14.1391 11.3103 14.142 11.2991 14.142 11.2871C14.142 11.2498 14.114 11.2196 14.0795 11.2196C14.045 11.2196 14.017 11.2498 14.017 11.2871C14.017 11.3032 14.0222 11.318 14.0309 11.3296L13.7944 11.6958L13.819 11.7155L14.0554 11.3495C14.0628 11.3528 14.071 11.3547 14.0795 11.3547C14.0917 11.3547 14.103 11.3509 14.1126 11.3444L14.3613 11.7158L14.3857 11.6956L14.1341 11.32ZM16.5862 11.7176H16.9877L17.047 11.6463C17.031 11.6341 17.0206 11.6139 17.0206 11.5912C17.0206 11.5539 17.0486 11.5236 17.0831 11.5236C17.1177 11.5236 17.1456 11.5539 17.1456 11.5912C17.1456 11.6088 17.1394 11.6248 17.1292 11.6368L17.2105 11.7176H17.3918C17.3918 11.7176 17.6591 11.4751 17.6591 11.5963C17.6591 11.7176 17.5313 11.8448 17.5313 11.8448C17.5313 11.8448 17.4543 11.8979 17.4543 11.8448C17.4543 11.8293 17.4528 11.8324 17.447 11.8447C17.4328 11.8744 17.3932 11.9577 17.2877 11.9585V12.0326H16.8549L16.9159 11.9585C16.9159 11.9585 16.8089 11.8845 16.7671 11.8448C16.6302 11.8182 16.5862 11.7176 16.5862 11.7176ZM17.1377 11.32C17.1428 11.3103 17.1456 11.2991 17.1456 11.2871C17.1456 11.2498 17.1177 11.2196 17.0831 11.2196C17.0486 11.2196 17.0206 11.2498 17.0206 11.2871C17.0206 11.3032 17.0258 11.318 17.0345 11.3296L16.798 11.6958L16.8227 11.7155L17.059 11.3495C17.0665 11.3528 17.0746 11.3547 17.0831 11.3547C17.0953 11.3547 17.1066 11.3509 17.1162 11.3444L17.365 11.7158L17.3893 11.6956L17.1377 11.32ZM16.5862 10.8054H16.9877L17.047 10.7341C17.031 10.7219 17.0206 10.7018 17.0206 10.679C17.0206 10.6417 17.0486 10.6115 17.0831 10.6115C17.1177 10.6115 17.1456 10.6417 17.1456 10.679C17.1456 10.6966 17.1394 10.7126 17.1292 10.7246L17.2105 10.8054H17.3918C17.3918 10.8054 17.6591 10.5629 17.6591 10.6842C17.6591 10.8054 17.5313 10.9326 17.5313 10.9326C17.5313 10.9326 17.4543 10.9858 17.4543 10.9326C17.4543 10.9171 17.4528 10.9203 17.447 10.9325C17.4328 10.9622 17.3932 11.0455 17.2877 11.0463V11.1204H16.8549L16.9159 11.0463C16.9159 11.0463 16.8089 10.9724 16.7671 10.9326C16.6302 10.9061 16.5862 10.8054 16.5862 10.8054ZM17.1377 10.4079C17.1428 10.3981 17.1456 10.3869 17.1456 10.375C17.1456 10.3377 17.1177 10.3074 17.0831 10.3074C17.0486 10.3074 17.0206 10.3377 17.0206 10.375C17.0206 10.3911 17.0258 10.4058 17.0345 10.4174L16.798 10.7836L16.8227 10.8034L17.059 10.4373C17.0665 10.4407 17.0746 10.4425 17.0831 10.4425C17.0953 10.4425 17.1066 10.4388 17.1162 10.4323L17.365 10.8036L17.3893 10.7834L17.1377 10.4079ZM16.5862 9.89326H16.9877L17.047 9.82199C17.031 9.80974 17.0206 9.78962 17.0206 9.76686C17.0206 9.72954 17.0486 9.69929 17.0831 9.69929C17.1177 9.69929 17.1456 9.72954 17.1456 9.76686C17.1456 9.78445 17.1394 9.80047 17.1292 9.81249L17.2105 9.89326H17.3918C17.3918 9.89326 17.6591 9.65078 17.6591 9.77202C17.6591 9.89326 17.5313 10.0205 17.5313 10.0205C17.5313 10.0205 17.4543 10.0736 17.4543 10.0205C17.4543 10.0049 17.4528 10.0081 17.447 10.0204C17.4328 10.0501 17.3932 10.1334 17.2877 10.1342V10.2082H16.8549L16.9159 10.1342C16.9159 10.1342 16.8089 10.0602 16.7671 10.0205C16.6302 9.9939 16.5862 9.89326 16.5862 9.89326ZM17.1377 9.49571C17.1428 9.48597 17.1456 9.47475 17.1456 9.46281C17.1456 9.42549 17.1177 9.39524 17.0831 9.39524C17.0486 9.39524 17.0206 9.42549 17.0206 9.46281C17.0206 9.47889 17.0258 9.49367 17.0345 9.50527L16.798 9.87147L16.8227 9.89119L17.059 9.52517C17.0665 9.52852 17.0746 9.53037 17.0831 9.53037C17.0953 9.53037 17.1066 9.52662 17.1162 9.52013L17.365 9.89143L17.3893 9.87123L17.1377 9.49571ZM16.5559 9.01488H16.9574L17.0166 8.94361C17.0007 8.93137 16.9903 8.91124 16.9903 8.88848C16.9903 8.85117 17.0183 8.82091 17.0528 8.82091C17.0873 8.82091 17.1153 8.85117 17.1153 8.88848C17.1153 8.90607 17.1091 8.92209 17.0989 8.93411L17.1801 9.01488H17.3615C17.3615 9.01488 17.6287 8.77241 17.6287 8.89364C17.6287 9.01488 17.5009 9.14209 17.5009 9.14209C17.5009 9.14209 17.4239 9.19524 17.4239 9.14209C17.4239 9.12657 17.4224 9.12972 17.4166 9.14198C17.4025 9.17171 17.3629 9.25499 17.2574 9.25578V9.32987H16.8245L16.8855 9.25578C16.8855 9.25578 16.7786 9.18183 16.7368 9.14209C16.5999 9.11552 16.5559 9.01488 16.5559 9.01488ZM17.1074 8.61733C17.1124 8.60759 17.1153 8.59637 17.1153 8.58443C17.1153 8.54711 17.0873 8.51686 17.0528 8.51686C17.0183 8.51686 16.9903 8.54711 16.9903 8.58443C16.9903 8.60052 16.9955 8.61529 17.0042 8.62689L16.7677 8.99309L16.7923 9.01281L17.0287 8.64679C17.0361 8.65014 17.0443 8.652 17.0528 8.652C17.065 8.652 17.0763 8.64824 17.0859 8.64175L17.3346 9.01305L17.359 8.99285L17.1074 8.61733ZM16.5559 8.06893H16.9574L17.0166 7.99766C17.0007 7.98542 16.9903 7.96529 16.9903 7.94254C16.9903 7.90522 17.0183 7.87497 17.0528 7.87497C17.0873 7.87497 17.1153 7.90522 17.1153 7.94254C17.1153 7.96012 17.1091 7.97614 17.0989 7.98816L17.1801 8.06893H17.3615C17.3615 8.06893 17.6287 7.82646 17.6287 7.9477C17.6287 8.06893 17.5009 8.19615 17.5009 8.19615C17.5009 8.19615 17.4239 8.2493 17.4239 8.19615C17.4239 8.18062 17.4224 8.18377 17.4166 8.19604C17.4025 8.22576 17.3629 8.30904 17.2574 8.30983V8.38392H16.8245L16.8855 8.30983C16.8855 8.30983 16.7786 8.23588 16.7368 8.19615C16.5999 8.16957 16.5559 8.06893 16.5559 8.06893ZM17.1074 7.67138C17.1124 7.66165 17.1153 7.65043 17.1153 7.63848C17.1153 7.60117 17.0873 7.57091 17.0528 7.57091C17.0183 7.57091 16.9903 7.60117 16.9903 7.63848C16.9903 7.65457 16.9955 7.66934 17.0042 7.68095L16.7677 8.04714L16.7923 8.06687L17.0287 7.70085C17.0361 7.7042 17.0443 7.70605 17.0528 7.70605C17.065 7.70605 17.0763 7.7023 17.0859 7.6958L17.3346 8.0671L17.359 8.0469L17.1074 7.67138Z" fill="#FFD018"/>
<path fill-rule="evenodd" clip-rule="evenodd" d="M15.3999 7.86603L15.1896 8.54944C15.1896 8.54944 14.8375 9.00508 14.7725 9.22836C14.7075 9.45165 14.672 9.60001 14.6897 9.60001C14.7075 9.60001 14.8514 9.53644 14.8514 9.3824C14.8514 9.22836 15.3999 8.73302 15.3999 8.73302L15.5636 7.86603H15.3999Z" fill="#FFC6B5"/>
<path fill-rule="evenodd" clip-rule="evenodd" d="M17.1074 6.79304C17.1124 6.7833 17.1153 6.77208 17.1153 6.76013C17.1153 6.72282 17.0873 6.69257 17.0528 6.69257C17.0183 6.69257 16.9903 6.72282 16.9903 6.76013C16.9903 6.77622 16.9955 6.791 17.0042 6.8026L16.7677 7.16879L16.7923 7.18852L17.0287 6.8225C17.0361 6.82585 17.0442 6.8277 17.0528 6.8277C17.0649 6.8277 17.0763 6.82395 17.0859 6.81745L17.3346 7.18875L17.3589 7.16855L17.1074 6.79304ZM17.0989 7.10981C17.1091 7.09779 17.1153 7.08178 17.1153 7.06419C17.1153 7.02687 17.0873 6.99662 17.0528 6.99662C17.0183 6.99662 16.9903 7.02687 16.9903 7.06419C16.9903 7.08694 17.0007 7.10707 17.0166 7.11931L16.9574 7.19058H16.5559C16.5559 7.19058 16.5999 7.29122 16.7368 7.3178C16.7786 7.35753 16.8855 7.43148 16.8855 7.43148L16.8245 7.50557H17.2574V7.43148C17.3629 7.43069 17.4025 7.34741 17.4166 7.31769C17.4224 7.30542 17.4239 7.30227 17.4239 7.3178C17.4239 7.37095 17.5009 7.3178 17.5009 7.3178C17.5009 7.3178 17.6287 7.19058 17.6287 7.06935C17.6287 6.94811 17.3615 7.19058 17.3615 7.19058H17.1801L17.0989 7.10981Z" fill="#FFD018"/>
<path fill-rule="evenodd" clip-rule="evenodd" d="M15.9126 7.59249C15.9185 7.60495 15.9229 7.61431 15.9229 7.6275C15.9229 7.66691 15.7559 7.72477 15.6354 7.72477C15.5149 7.72477 15.5621 7.6275 15.6354 7.57354C15.7086 7.51959 15.6295 7.42674 15.5621 7.42674C15.4982 7.42674 15.4984 7.33643 15.4986 7.26384C15.4986 7.26001 15.4986 7.25622 15.4986 7.2525V6.9697C15.4986 6.85623 15.5294 6.86952 15.5881 6.89493C15.6227 6.90987 15.6669 6.929 15.7203 6.929C15.81 6.929 15.815 6.94966 15.8284 7.0056C15.8366 7.03959 15.8479 7.0866 15.8833 7.1499C15.9396 7.25072 15.9281 7.27392 15.9101 7.31045C15.8981 7.33461 15.8833 7.3646 15.8833 7.42674C15.8833 7.53062 15.9008 7.56769 15.9126 7.59249ZM16.0614 8.31784L16.0968 7.93346C16.0968 7.93346 16.0614 7.79286 16.1444 7.79286C16.2275 7.79286 16.3564 8.4651 16.403 8.73461C16.4328 8.90697 16.4055 8.93896 16.3264 9.03134C16.2818 9.08341 16.2208 9.15466 16.1444 9.28105C16.0173 9.49128 16.0255 9.61431 16.0318 9.70806C16.0359 9.77067 16.0393 9.82022 16.0008 9.87396C15.9114 9.9989 15.8748 9.88067 15.839 9.76532C15.8364 9.75674 15.8337 9.74818 15.831 9.73974C15.7969 9.63184 15.9527 9.30477 16.0584 9.08262C16.0723 9.05356 16.0852 9.0263 16.0968 9.00155C16.197 8.78764 16.1876 8.71299 16.1444 8.62341C16.1012 8.53383 16.0614 8.31784 16.0614 8.31784Z" fill="#FFC6B5"/>
<path fill-rule="evenodd" clip-rule="evenodd" d="M16.2621 12.106C16.2621 12.2037 16.1874 12.2829 16.0953 12.2829C16.0031 12.2829 15.9284 12.2037 15.9284 12.106C15.9284 12.0082 16.0031 11.929 16.0953 11.929C16.1874 11.929 16.2621 12.0082 16.2621 12.106ZM15.3747 12.1551C15.2998 12.218 15.2086 12.2325 15.1709 12.1876C15.1332 12.1426 15.1633 12.0553 15.2382 11.9925C15.3131 11.9296 15.4043 11.9151 15.442 11.9601C15.4797 12.005 15.4496 12.0923 15.3747 12.1551Z" fill="#FFD018"/>
<path fill-rule="evenodd" clip-rule="evenodd" d="M15.5944 6.7404C15.5944 6.7404 15.4209 6.77563 15.4787 6.86253C15.5366 6.94942 15.4033 6.92695 15.5944 6.93819C15.7855 6.94942 15.8378 7.01898 15.8116 7.07036C15.7855 7.12175 15.7649 7.24934 15.8116 7.32623C15.8583 7.40311 15.8731 7.5369 15.9556 7.47C16.0381 7.40311 16.1965 7.3112 16.148 7.19078C16.0995 7.07036 16.1676 6.93028 16.0616 6.86253C15.9556 6.79478 15.9319 6.83621 15.8713 6.7404C15.8107 6.64459 15.7213 6.61821 15.6579 6.6793C15.5944 6.7404 15.5944 6.7404 15.5944 6.7404Z" fill="#A95601"/>
<path fill-rule="evenodd" clip-rule="evenodd" d="M15.56 7.61096C15.56 7.61096 15.2112 8.03091 15.2684 8.17887C15.3255 8.32683 15.4108 8.33462 15.3681 8.54498C15.3255 8.75535 15.3941 9.08059 15.2684 9.49434C15.1426 9.90808 15.06 10.8788 15.1013 10.8788C15.1426 10.8788 15.2 11.4151 15.1506 11.6556C15.1013 11.8962 14.757 12.0975 15.1013 12.0975C15.4455 12.0975 15.4864 12.1452 15.6239 12.0975C15.7615 12.0498 15.9567 12.2347 15.9567 12.0975C15.9567 11.9603 15.9714 11.9322 16.0763 11.9322C16.1811 11.9322 16.1758 11.9322 16.2687 11.9322C16.3615 11.9322 16.4832 12.0186 16.4832 11.8136C16.4832 11.6086 16.5059 11.1681 16.3873 10.826C16.2687 10.484 16.309 10.7024 16.1926 10.245C16.1237 9.97406 16.0705 9.86653 16.0286 9.77189C15.9997 9.70675 15.9174 9.82109 15.8979 9.71912C15.8912 9.68454 15.9476 9.48166 15.9482 9.45561C15.9519 9.29321 16.0763 9.26557 16.0763 8.98621C16.0763 8.66205 15.9986 8.30591 16.0763 8.12773C16.154 7.94954 16.3448 8.05668 16.2687 7.88337C16.1926 7.71007 16.1679 7.61096 16.0247 7.61096C15.8816 7.61096 15.56 7.61096 15.56 7.61096Z" fill="#F7FCFF"/>
<path d="M13.1167 12.5909L13.1751 12.5132C14.0102 13.291 14.7821 13.6785 15.4906 13.6785C16.1999 13.6785 17.0634 13.2672 18.0795 12.4422L18.1331 12.5241C17.1029 13.3605 16.2226 13.7799 15.4906 13.7799C14.7579 13.7799 13.9668 13.3827 13.1167 12.5909Z" fill="#272727"/>
</g>
</g>
</svg>
