<svg width="24" height="24" viewBox="0 0 24 24" fill="none" xmlns="http://www.w3.org/2000/svg">
<path d="M11.9998 9.32C13.1898 9.32 14.1598 8.35 14.1598 7.16C14.1598 5.97 13.1898 5 11.9998 5C10.8098 5 9.83984 5.97 9.83984 7.16C9.83984 8.35 10.8098 9.32 11.9998 9.32Z" stroke="#1E1E1C" stroke-width="1.5" stroke-linecap="round" stroke-linejoin="round"/>
<path d="M6.79086 19.0001C7.98086 19.0001 8.95086 18.0301 8.95086 16.8401C8.95086 15.6501 7.98086 14.6801 6.79086 14.6801C5.60086 14.6801 4.63086 15.6501 4.63086 16.8401C4.63086 18.0301 5.59086 19.0001 6.79086 19.0001Z" stroke="#1E1E1C" stroke-width="1.5" stroke-linecap="round" stroke-linejoin="round"/>
<path d="M17.2108 19.0001C18.4008 19.0001 19.3708 18.0301 19.3708 16.8401C19.3708 15.6501 18.4008 14.6801 17.2108 14.6801C16.0208 14.6801 15.0508 15.6501 15.0508 16.8401C15.0508 18.0301 16.0208 19.0001 17.2108 19.0001Z" stroke="#1E1E1C" stroke-width="1.5" stroke-linecap="round" stroke-linejoin="round"/>
</svg>
