<svg width="24" height="24" viewBox="0 0 24 24" fill="none" xmlns="http://www.w3.org/2000/svg">
<path d="M5.88888 5H4.11112C3.5 5 3 5.59322 3 6.31827V17.6817C3 18.4068 3.5 19 4.11112 19H5.88888C6.5 19 7 18.4068 7 17.6817V6.31827C7 5.59322 6.5 5 5.88888 5Z" stroke="#1E1E1C" stroke-width="1.5" stroke-linecap="round" stroke-linejoin="round"/>
<path d="M12.8002 5.19H11.2002C10.6502 5.19 10.2002 5.64 10.2002 6.19V18C10.2002 18.55 10.6502 19 11.2002 19H12.8002C13.3502 19 13.8002 18.55 13.8002 18V6.19C13.8002 5.64 13.3502 5.19 12.8002 5.19Z" stroke="#1E1E1C" stroke-width="1.5" stroke-linecap="round" stroke-linejoin="round"/>
<path d="M19.8889 5H18.1111C17.5 5 17 5.37059 17 5.82353V18.1765C17 18.6294 17.5 19 18.1111 19H19.8889C20.5 19 21 18.6294 21 18.1765V5.82353C21 5.37059 20.5 5 19.8889 5Z" stroke="#1E1E1C" stroke-width="1.5" stroke-linecap="round" stroke-linejoin="round"/>
</svg>
