<svg width="25" height="24" viewBox="0 0 25 24" fill="none" xmlns="http://www.w3.org/2000/svg">
<path d="M14.2309 3.50989L15.9909 7.02989C16.2309 7.51989 16.8709 7.98989 17.4109 8.07989L20.6009 8.60989C22.6409 8.94989 23.1209 10.4299 21.6509 11.8899L19.1709 14.3699C18.7509 14.7899 18.5209 15.5999 18.6509 16.1799L19.3609 19.2499C19.9209 21.6799 18.6309 22.6199 16.4809 21.3499L13.4909 19.5799C12.9509 19.2599 12.0609 19.2599 11.5109 19.5799L8.52089 21.3499C6.38089 22.6199 5.08089 21.6699 5.64089 19.2499L6.35089 16.1799C6.48089 15.5999 6.25089 14.7899 5.83089 14.3699L3.35089 11.8899C1.89089 10.4299 2.36089 8.94989 4.40089 8.60989L7.59089 8.07989C8.12089 7.98989 8.76089 7.51989 9.00089 7.02989L10.7609 3.50989C11.7209 1.59989 13.2809 1.59989 14.2309 3.50989Z" stroke="#1E1E1C" stroke-width="1.5" stroke-linecap="round" stroke-linejoin="round"/>
</svg>
