<svg width="48" height="48" viewBox="0 0 48 48" fill="none" xmlns="http://www.w3.org/2000/svg">
<path d="M20.1 5.06001L8.06004 12.92C4.20004 15.44 4.20004 21.08 8.06004 23.6L20.1 31.46C22.26 32.88 25.82 32.88 27.98 31.46L39.96 23.6C43.8 21.08 43.8 15.46 39.96 12.94L27.98 5.08001C25.82 3.64001 22.26 3.64001 20.1 5.06001Z" stroke="#1E1E1C" stroke-width="2" stroke-linecap="round" stroke-linejoin="round"/>
<path d="M11.2602 26.16L11.2402 35.54C11.2402 38.08 13.2002 40.8 15.6002 41.6L21.9802 43.72C23.0802 44.08 24.9002 44.08 26.0202 43.72L32.4002 41.6C34.8002 40.8 36.7602 38.08 36.7602 35.54V26.26" stroke="#1E1E1C" stroke-width="2" stroke-linecap="round" stroke-linejoin="round"/>
<path d="M42.7998 30V18" stroke="#1E1E1C" stroke-width="2" stroke-linecap="round" stroke-linejoin="round"/>
</svg>
