<svg width="24" height="24" viewBox="0 0 24 24" fill="none" xmlns="http://www.w3.org/2000/svg">
<g clip-path="url(#clip0_437_1681)">
<path d="M9.30111 17.4667L9.26552 18H9.8C10.0289 18 10.2224 17.9468 10.3927 17.8482C10.5377 17.7642 10.6507 17.654 10.7236 17.5828C10.7276 17.5789 10.7315 17.5751 10.7353 17.5714L10.736 17.5707L10.7476 17.5594L10.7486 17.5585L11.8856 16.4528L14.5429 18.416L14.5695 18.4357L14.5984 18.4517C14.9327 18.6361 15.349 18.7534 15.7447 18.5749C16.1428 18.3954 16.334 18.0011 16.4169 17.6045C16.4169 17.6042 16.417 17.6039 16.4171 17.6036L18.3835 8.33709C18.5065 7.83467 18.4392 7.33432 18.0993 7.00556C17.7545 6.67213 17.2703 6.65179 16.8682 6.82856L5.32126 11.281L5.32125 11.281L5.31502 11.2835C5.08514 11.3757 4.88187 11.4887 4.72462 11.6277C4.5706 11.7638 4.4214 11.9614 4.39563 12.2193C4.36798 12.496 4.49309 12.7236 4.65542 12.8768C4.80889 13.0217 5.00765 13.116 5.20971 13.1781C5.21013 13.1782 5.21054 13.1783 5.21096 13.1784L8.17468 14.1034L8.39513 14.1722L8.59044 14.049L12.2515 11.7393L9.66902 14.0698L9.27705 14.4235L9.49009 14.6352L9.30111 17.4667ZM12 23.5C5.64874 23.5 0.5 18.3513 0.5 12C0.5 5.64874 5.64874 0.5 12 0.5C18.3513 0.5 23.5 5.64874 23.5 12C23.5 18.3513 18.3513 23.5 12 23.5Z" fill="#1E1E1C" stroke="#1E1E1C"/>
</g>
<defs>
<clipPath id="clip0_437_1681">
<rect width="24" height="24" fill="white"/>
</clipPath>
</defs>
</svg>
