<svg width="140" height="141" viewBox="0 0 140 141" fill="none" xmlns="http://www.w3.org/2000/svg">
<defs>
<linearGradient id="paint0_linear_427_19535" x1="2.43921e-06" y1="70.7905" x2="140" y2="70.7905" gradientUnits="userSpaceOnUse">
<stop stop-color="#FF2D55"/>
<stop offset="0.309838" stop-color="#FFCC00"/>
<stop offset="0.720821" stop-color="#FFCC00"/>
<stop offset="1" stop-color="#34C759"/>
</linearGradient>
</defs>
<mask id="mask0_427_19535" style="mask-type:alpha" maskUnits="userSpaceOnUse" x="0" y="0" width="140" height="71">
<path d="M139 70.5C139.552 70.5 140.001 70.0522 139.993 69.5C139.866 60.6479 138.062 51.8969 134.672 43.7122C131.154 35.2194 125.998 27.5026 119.497 21.0025C112.997 14.5024 105.281 9.34626 96.7878 5.82843C88.295 2.3106 79.1925 0.5 70 0.5C60.8075 0.5 51.7049 2.3106 43.2122 5.82843C34.7194 9.34626 27.0026 14.5024 20.5025 21.0025C14.0024 27.5026 8.84626 35.2194 5.32843 43.7122C1.93821 51.8969 0.133606 60.6479 0.00714267 69.5C-0.000746583 70.0522 0.447715 70.5 1 70.5L70 70.5H139Z" fill="#F2F2F2"/>
</mask>
<g mask="url(#mask0_427_19535)">
<path d="M139 70.5C139.552 70.5 140.001 70.0522 139.993 69.5C139.866 60.6479 138.062 51.8969 134.672 43.7122C131.154 35.2194 125.998 27.5026 119.497 21.0025C112.997 14.5024 105.281 9.34626 96.7878 5.82843C88.295 2.3106 79.1925 0.5 70 0.5C60.8075 0.5 51.7049 2.3106 43.2122 5.82843C34.7194 9.34626 27.0026 14.5024 20.5025 21.0025C14.0024 27.5026 8.84626 35.2194 5.32843 43.7122C1.93821 51.8969 0.133606 60.6479 0.00714267 69.5C-0.000746583 70.0522 0.447715 70.5 1 70.5L70 70.5H139Z" fill="#F2F2F2"/>
<path d="M138.25 70.5C139.216 70.5 140.002 69.7164 139.978 68.7502C139.763 60.154 137.966 51.6657 134.672 43.7122C131.154 35.2194 125.998 27.5026 119.497 21.0025C112.997 14.5024 105.281 9.34626 96.7878 5.82843C88.295 2.3106 79.1925 0.5 70 0.5C60.8075 0.5 51.7049 2.3106 43.2122 5.82843C34.7194 9.34626 27.0026 14.5024 20.5025 21.0025C14.0024 27.5026 8.84626 35.2194 5.32843 43.7122C2.03397 51.6657 0.236813 60.154 0.0218728 68.7502C-0.00228611 69.7164 0.783502 70.5 1.75 70.5C2.7165 70.5 3.49759 69.7163 3.52302 68.7502C3.73719 60.6137 5.44345 52.5804 8.56201 45.0516C11.9039 36.9834 16.8023 29.6525 22.9774 23.4774C29.1525 17.3023 36.4834 12.404 44.5515 9.06201C52.6197 5.72007 61.2671 4 70 4C78.7329 4 87.3803 5.72007 95.4484 9.06201C103.517 12.4039 110.848 17.3023 117.023 23.4774C123.198 29.6525 128.096 36.9834 131.438 45.0516C134.557 52.5804 136.263 60.6137 136.477 68.7502C136.502 69.7163 137.284 70.5 138.25 70.5Z" fill="url(#paint0_linear_427_19535)"/>
</g>
</svg>
